<?xml version="1.0" encoding="UTF-8"?><svg id="Layer_1" xmlns="http://www.w3.org/2000/svg" viewBox="0 0 773.54 85.83"><defs><style>.cls-1{stroke-width:0px;}</style></defs><path class="cls-1" d="m14.2,62.8c-1.67-.03-3.1-.04-4.3-.04-.86,0-2.15.01-3.87.04-1.72.03-3.7.07-5.94.13v-3.1c1.32-.06,2.4-.14,3.23-.26.83-.11,1.49-.24,1.98-.39.49-.14.86-.3,1.12-.47.26-.17.44-.34.56-.52.23-.4.36-1.1.39-2.11.03-1,.04-2.6.04-4.78v-5.47c0-2.15.01-4.4.04-6.76.03-2.35.04-4.71.04-7.06s.01-4.48.04-6.37c.03-1.89.04-3.44.04-4.65v-1.98c0-1.95-.04-3.4-.13-4.35-.09-.95-.21-1.56-.39-1.85-.4-.86-1.26-1.43-2.58-1.72-.63-.11-1.38-.23-2.24-.34-.86-.11-1.61-.2-2.24-.26v-3.1c.46,0,1.05.01,1.77.04.72.03,1.45.06,2.19.09.75.03,1.43.04,2.07.04h4.09c1.06,0,2.31-.06,3.74-.17,4.88,6.94,9.8,13.95,14.76,21,4.96,7.06,9.97,14.09,15.02,21.09,0-2.7-.03-5.65-.09-8.87-.06-3.21-.1-6.28-.13-9.21-.03-2.93-.07-5.52-.13-7.79-.06-2.27-.09-3.8-.09-4.61-.06-2.24-.12-3.84-.17-4.82-.06-.98-.23-1.69-.52-2.15-.23-.34-.76-.65-1.59-.9-.83-.26-2.54-.47-5.12-.65v-3.1c2.18.06,4.12.1,5.81.13,1.69.03,3,.04,3.92.04,1.15,0,2.57-.01,4.26-.04,1.69-.03,3.63-.07,5.81-.13v3.1c-1.26.12-2.28.22-3.06.3-.77.09-1.41.19-1.89.3-.49.12-.88.24-1.16.39-.29.14-.52.3-.69.47-.34.34-.57.98-.69,1.89-.12.92-.17,2.64-.17,5.17,0,4.3-.01,9.05-.04,14.25-.03,5.19-.04,10.23-.04,15.11,0,.98.01,2.14.04,3.49.03,1.35.04,2.71.04,4.09s.01,2.68.04,3.92c.03,1.23.04,2.22.04,2.97h-3.87c-.57-.8-1.48-2.12-2.71-3.96-1.23-1.84-3.06-4.5-5.47-8.01-2.41-3.5-5.55-7.99-9.43-13.47-3.87-5.48-8.74-12.32-14.59-20.53,0,1.89.01,3.99.04,6.28.03,2.3.06,4.66.09,7.1.03,2.44.06,4.84.09,7.19.03,2.35.06,4.49.09,6.41.03,1.92.04,3.56.04,4.91v5.72c0,.8.03,1.46.09,1.98.06.52.11.92.17,1.21.06.29.17.52.34.69.34.46.99.77,1.94.95.95.17,2.65.34,5.12.52v3.1c-2.18-.06-4.1-.1-5.77-.13Z"/><path class="cls-1" d="m78.34,62.93c-.86,0-1.74-.01-2.63-.04-.89-.03-1.76-.06-2.63-.09-.86-.03-1.67-.04-2.41-.04h-1.81c-.92,0-2.27.01-4.05.04-1.78.03-3.56.07-5.34.13v-3.01c1.95-.23,3.28-.4,4-.52.72-.11,1.22-.31,1.51-.6.23-.23.42-.65.56-1.25.14-.6.21-1.62.21-3.06v-7.7c0-1.35-.01-2.65-.04-3.92-.03-1.26-.06-2.37-.09-3.31-.03-.95-.04-1.62-.04-2.02-.12-.98-.22-1.71-.3-2.19-.09-.49-.27-.9-.56-1.25-.4-.52-1.02-.95-1.85-1.29-.83-.34-1.82-.6-2.97-.77v-1.89c2.18-1.66,4.06-2.85,5.64-3.57,1.58-.72,2.83-1.08,3.74-1.08,1.61,0,2.41,1.15,2.41,3.44v8.52c0,1.84-.01,3.73-.04,5.68-.03,1.95-.04,3.74-.04,5.38v5.9c0,1.49.04,2.5.13,3.01.09.52.24.92.47,1.21.17.29.69.53,1.55.73.86.2,2.38.39,4.56.56v3.01Zm-6.2-53.37c0,1.32-.39,2.45-1.16,3.4-.77.95-1.91,1.42-3.4,1.42-1.38,0-2.45-.47-3.23-1.42-.77-.95-1.16-2.05-1.16-3.31s.42-2.45,1.25-3.4c.83-.95,1.94-1.42,3.31-1.42,1.55,0,2.67.46,3.36,1.38.69.92,1.03,2.04,1.03,3.36Z"/><path class="cls-1" d="m95.42,62.8c-1.87-.03-3.29-.04-4.26-.04-.92,0-2.14.01-3.66.04-1.52.03-3.17.07-4.95.13v-3.01c1.95-.23,3.3-.42,4.05-.56.75-.14,1.26-.39,1.55-.73.23-.23.4-.65.52-1.25.11-.6.17-1.59.17-2.97v-7.83c0-1.84-.01-3.62-.04-5.34-.03-1.72-.07-2.96-.13-3.7-.06-.86-.14-1.56-.26-2.11-.12-.54-.34-1.05-.69-1.51-.8-.92-2.38-1.55-4.73-1.89v-1.89c1.72-1.49,3.43-2.64,5.12-3.44,1.69-.8,3.03-1.21,4-1.21.34,0,.65.06.9.17.26.12.5.34.73.69.23.34.42.86.56,1.55.14.69.24,1.61.3,2.75,2.18-1.89,4.33-3.24,6.46-4.05,2.12-.8,4.16-1.21,6.11-1.21,1.61,0,3,.23,4.17.69,1.18.46,2.2,1.09,3.06,1.89.98.98,1.69,2.27,2.15,3.87.46,1.61.69,3.79.69,6.54v1.38c0,.8-.02,1.79-.04,2.97-.03,1.18-.04,2.42-.04,3.74s-.01,2.55-.04,3.7c-.03,1.15-.04,2.12-.04,2.93v1.29c0,1.15.04,2.01.13,2.58.09.57.21,1,.39,1.29.11.17.27.34.47.52.2.17.52.32.95.43.43.12,1,.23,1.72.34.72.12,1.65.23,2.8.34v3.01c-.86,0-1.75-.01-2.67-.04-.92-.03-1.81-.06-2.67-.09-.86-.03-1.67-.04-2.41-.04h-1.72c-.92,0-2.21.01-3.87.04-1.67.03-3.33.07-4.99.13v-3.01c1.78-.17,3.04-.36,3.79-.56.75-.2,1.26-.47,1.55-.82.23-.23.4-.65.52-1.25.11-.6.17-1.62.17-3.06v-6.33c0-1.64-.02-3.27-.04-4.91-.03-1.64-.04-2.97-.04-4-.06-1.21-.17-2.31-.34-3.31-.17-1-.49-1.82-.95-2.45-1.21-1.66-3.21-2.5-6.03-2.5-1.09,0-2.47.17-4.13.52-1.67.34-3.3,1-4.91,1.98v5.9c0,1.46-.01,3.03-.04,4.69-.03,1.67-.04,3.23-.04,4.69v5.81c0,1.32.03,2.28.09,2.88.06.6.23,1.05.52,1.33.11.17.27.32.47.43.2.12.5.23.9.34.4.12.93.21,1.59.3.66.09,1.51.19,2.54.3v3.01c-1.72-.06-3.52-.1-5.38-.13Z"/><path class="cls-1" d="m125.51,83.59c1.15-1.38,2.12-2.73,2.93-4.05.8-1.32,1.43-2.44,1.89-3.36.52-1.15.96-2.68,1.33-4.61.37-1.92.56-4.52.56-7.79,0-1.49.03-3.46.09-5.9.06-2.44.09-5.29.09-8.57v-3.1c0-1.21-.01-2.4-.04-3.57-.03-1.18-.06-2.24-.09-3.19-.03-.95-.04-1.59-.04-1.94-.06-1.72-.34-2.9-.86-3.53-.86-.98-2.47-1.64-4.82-1.98v-1.89c2.01-1.66,3.84-2.85,5.51-3.57,1.66-.72,3.01-1.08,4.05-1.08,1.49,0,2.24,1.09,2.24,3.27v2.5c0,1.09-.02,2.31-.04,3.66-.03,1.35-.04,2.71-.04,4.09v10.03c0,2.1.01,4.05.04,5.85.03,1.81.04,3.39.04,4.73v2.88c0,1.66-.03,3.17-.09,4.52-.06,1.35-.2,2.6-.43,3.74-.23,1.15-.53,2.22-.9,3.23-.37,1-.85,1.99-1.42,2.97-.75,1.26-1.78,2.64-3.1,4.13-1.32,1.49-2.81,3.07-4.48,4.73l-2.41-2.24Zm13.26-74.03c0,1.32-.39,2.45-1.16,3.4-.77.95-1.91,1.42-3.4,1.42-1.38,0-2.45-.47-3.23-1.42-.77-.95-1.16-2.05-1.16-3.31s.42-2.45,1.25-3.4c.83-.95,1.94-1.42,3.31-1.42,1.55,0,2.67.46,3.36,1.38.69.92,1.03,2.04,1.03,3.36Z"/><path class="cls-1" d="m182.41,59.92c-1.03.98-2.3,1.85-3.79,2.63-1.49.77-2.81,1.16-3.96,1.16-1.55,0-2.7-.4-3.44-1.21-.75-.8-1.29-1.92-1.64-3.36-1.49,1.44-3.06,2.57-4.69,3.4-1.64.83-3.69,1.25-6.15,1.25-2.98,0-5.47-.99-7.45-2.97s-2.97-4.55-2.97-7.7c0-1.55.27-2.94.82-4.18.54-1.23,1.56-2.29,3.06-3.19,1.49-.89,3.59-1.59,6.28-2.11,2.7-.52,6.17-.77,10.42-.77,0-3.1-.07-5.31-.21-6.63-.14-1.32-.42-2.29-.82-2.93-.57-.98-1.32-1.68-2.24-2.11-.92-.43-2.3-.65-4.13-.65-1.67,0-3.37.27-5.12.82-1.75.55-3.29,1.25-4.61,2.11-.57-.92-.86-1.86-.86-2.84,0-.63.2-1.22.6-1.76.4-.54,1.26-1.13,2.58-1.76,1.21-.57,2.7-1.03,4.48-1.38,1.78-.34,3.5-.52,5.17-.52,2.01,0,3.77.27,5.29.82,1.52.55,2.71,1.28,3.57,2.2,1.49,1.67,2.24,4.42,2.24,8.26v4.35c0,1.06-.01,2.21-.04,3.44-.03,1.23-.04,2.38-.04,3.44v4.09c0,2.18.23,3.83.69,4.95.46,1.12,1.43,1.68,2.93,1.68.46,0,.99-.1,1.59-.3.6-.2,1.1-.36,1.51-.47l.95,2.24Zm-13.52-13.43c-3.21,0-5.75.19-7.62.56-1.87.37-3.29.85-4.26,1.42-.98.57-1.61,1.25-1.89,2.02-.29.77-.43,1.59-.43,2.45,0,1.67.57,3.1,1.72,4.3,1.15,1.21,2.64,1.81,4.48,1.81s3.26-.24,4.43-.73c1.18-.49,2.42-1.1,3.74-1.85l-.17-9.99Z"/><path class="cls-1" d="m215.04,63.27l-10.93-44.59c-.52-2.18-.99-3.86-1.42-5.04-.43-1.18-.96-1.94-1.59-2.28-.46-.29-1.02-.47-1.68-.56-.66-.09-1.62-.19-2.88-.3v-3.1c2.58.06,4.72.1,6.41.13,1.69.03,3.11.04,4.26.04h2.54c1.06,0,2.15-.01,3.27-.04,1.12-.03,2.14-.06,3.06-.09.92-.03,1.58-.04,1.98-.04v3.1c-1.67.12-3.01.23-4.05.34-1.03.12-1.84.29-2.41.52-.57.23-.95.5-1.12.82-.17.32-.26.7-.26,1.16,0,.52.14,1.42.43,2.71.29,1.29.6,2.68.95,4.18l7.32,31.33,13.77-44.08h3.96l13.08,44.16,7.23-30.3c.34-1.49.65-2.93.9-4.3s.39-2.38.39-3.01c0-.52-.09-.95-.26-1.29-.17-.34-.55-.66-1.12-.95-.57-.29-1.38-.53-2.41-.73-1.03-.2-2.41-.39-4.13-.56v-3.1c2.01.12,3.97.17,5.9.17h6.46c.72,0,1.49-.01,2.32-.04.83-.03,1.68-.06,2.54-.09.86-.03,1.66-.04,2.41-.04v3.1c-1.32.17-2.4.39-3.23.65-.83.26-1.48.62-1.94,1.08-.63.69-1.13,1.78-1.51,3.27-.37,1.49-.96,3.73-1.76,6.71l-10.67,41.06h-4.39l-13.17-43.47-13.86,43.47h-4.39Z"/><path class="cls-1" d="m300.69,57.76c-4.59,4.13-9.44,6.2-14.55,6.2-2.7,0-5.07-.46-7.1-1.38-2.04-.92-3.77-2.2-5.21-3.83-1.44-1.64-2.51-3.57-3.23-5.81-.72-2.24-1.08-4.71-1.08-7.4,0-3.16.44-6,1.33-8.52.89-2.52,2.11-4.65,3.66-6.37,1.55-1.72,3.36-3.04,5.42-3.96,2.07-.92,4.3-1.38,6.71-1.38s4.65.45,6.37,1.33c1.72.89,3.1,2.05,4.13,3.49,1.03,1.44,1.78,3.04,2.24,4.82.46,1.78.69,3.53.69,5.25,0,.8-.2,1.44-.6,1.89-.4.46-1.21.69-2.41.69h-21.78v.77c0,4.53,1.08,8.15,3.23,10.85,2.15,2.7,5.26,4.05,9.34,4.05,2.47,0,4.5-.3,6.11-.9,1.61-.6,3.24-1.45,4.91-2.54l1.81,2.75Zm-6.63-18.94c-.23-3.27-1.13-5.67-2.71-7.19-1.58-1.52-3.57-2.28-5.98-2.28-2.75,0-4.98.92-6.67,2.75-1.69,1.84-2.74,4.3-3.14,7.4l18.51-.69Z"/><path class="cls-1" d="m310.42,64.13c.06-1.89.1-3.95.13-6.16.03-2.21.04-4.75.04-7.62,0-4.07-.01-8.78-.04-14.12-.03-5.34-.04-11.48-.04-18.42,0-1.49-.03-2.75-.09-3.79-.06-1.03-.13-1.88-.22-2.54-.09-.66-.2-1.21-.34-1.64-.14-.43-.3-.79-.47-1.08-.46-.63-1.08-1.12-1.85-1.46s-1.74-.6-2.88-.77v-1.89c2.29-1.61,4.32-2.77,6.07-3.49,1.75-.72,3.11-1.08,4.09-1.08.46,0,.86.17,1.21.52s.52,1.06.52,2.15v6.24c0,2.61-.01,5.31-.04,8.09-.03,2.78-.04,5.41-.04,7.88v5.51c2.01-1.55,4.12-2.78,6.33-3.7,2.21-.92,4.32-1.38,6.33-1.38,2.29,0,4.33.46,6.11,1.38,1.78.92,3.27,2.18,4.48,3.79,1.21,1.61,2.12,3.5,2.75,5.68.63,2.18.95,4.53.95,7.06,0,2.93-.42,5.62-1.25,8.09-.83,2.47-2.07,4.59-3.7,6.37-1.64,1.78-3.63,3.17-5.98,4.18-2.35,1-5.08,1.51-8.18,1.51-1.61,0-3.29-.14-5.04-.43-1.75-.29-3.26-.69-4.52-1.21l-1.38,2.84-2.93-.52Zm6.03-30.82v16.01c0,1.55.01,2.68.04,3.4.03.72.04,1.25.04,1.59.06,1.15.49,2.12,1.29,2.93.63.57,1.59,1.08,2.88,1.51,1.29.43,2.8.65,4.52.65,4.3,0,7.32-1.3,9.04-3.92,1.72-2.61,2.58-6.36,2.58-11.23,0-3.84-.88-7.03-2.63-9.56-1.75-2.52-4.35-3.79-7.79-3.79-1.89,0-3.65.2-5.25.6-1.61.4-3.19,1-4.73,1.81Z"/><path class="cls-1" d="m373.13,53.46c.54,1.49,1.05,2.53,1.51,3.1,1.15,1.32,2.58,2.22,4.3,2.71,1.72.49,3.53.73,5.42.73,1.66,0,3.17-.24,4.52-.73,1.35-.49,2.48-1.12,3.4-1.89s1.62-1.68,2.11-2.71c.49-1.03.73-2.12.73-3.27,0-1.09-.1-2.11-.3-3.06-.2-.95-.63-1.89-1.29-2.84-.66-.95-1.63-1.92-2.93-2.93-1.29-1-3-2.11-5.12-3.31l-4.56-2.58c-2.24-1.32-4.08-2.6-5.51-3.83-1.44-1.23-2.57-2.48-3.4-3.74-.83-1.26-1.39-2.55-1.68-3.87-.29-1.32-.43-2.75-.43-4.3,0-2.35.46-4.43,1.38-6.24.92-1.81,2.2-3.34,3.83-4.61,1.64-1.26,3.54-2.22,5.72-2.88,2.18-.66,4.53-.99,7.06-.99,1.95,0,3.71.1,5.29.3,1.58.2,3.03.56,4.35,1.08.4.12.82.36,1.25.73.43.37.73,1.16.9,2.37.23,1.67.37,3.46.43,5.38.06,1.92.09,3.72.09,5.38l-3.01.17c-.46-2.18-.86-3.89-1.21-5.12-.34-1.23-.75-2.22-1.21-2.97-.63-1.09-1.58-1.89-2.84-2.41-1.26-.52-3.16-.77-5.68-.77-3.04,0-5.54.77-7.49,2.32-1.95,1.55-2.93,3.7-2.93,6.46,0,1.15.13,2.17.39,3.06.26.89.7,1.75,1.33,2.58.63.83,1.48,1.67,2.54,2.5,1.06.83,2.37,1.71,3.92,2.63l4.73,2.84c2.41,1.49,4.43,2.86,6.07,4.09,1.64,1.23,2.93,2.45,3.88,3.66.95,1.21,1.62,2.47,2.02,3.79.4,1.32.6,2.81.6,4.48,0,2.24-.42,4.3-1.25,6.2-.83,1.89-2.02,3.52-3.57,4.86-1.55,1.35-3.43,2.41-5.64,3.19-2.21.77-4.69,1.16-7.45,1.16-2.01,0-3.98-.14-5.9-.43-1.92-.29-3.83-.83-5.72-1.64-.98-.4-1.68-.9-2.11-1.51-.43-.6-.7-1.56-.82-2.88-.12-.69-.2-1.49-.26-2.41-.06-.92-.1-1.84-.13-2.75-.03-.92-.07-1.79-.13-2.63-.06-.83-.09-1.53-.09-2.11l3.27-.26c.52,2.47,1.05,4.45,1.59,5.94Z"/><path class="cls-1" d="m424.05,62.93c-1.72.4-3.13.6-4.22.6s-2.11-.16-3.06-.47c-.95-.31-1.78-.87-2.5-1.68-.72-.8-1.29-1.86-1.72-3.19-.43-1.32-.65-2.98-.65-4.99v-9.6c0-3.7.06-7.62.17-11.75-1.03-.06-2.21-.13-3.53-.22-1.32-.09-2.41-.19-3.27-.3v-2.67c.8-.29,1.64-.54,2.5-.77.86-.23,1.66-.49,2.41-.77,1.15-.4,1.84-1.18,2.07-2.32.29-1.15.57-2.4.86-3.74.29-1.35.6-2.68.95-4h3.96v10.24c1.09,0,2.58.03,4.48.09,1.89.06,3.82.14,5.77.26v3.7c-1.49.17-3.23.3-5.21.39-1.98.09-3.66.13-5.04.13,0,.98-.02,2.34-.04,4.09-.03,1.75-.06,3.5-.09,5.25-.03,1.75-.04,3.3-.04,4.65v2.37c0,1.32.03,2.54.09,3.66.06,1.12.14,2.08.26,2.88.17,1.32.59,2.34,1.25,3.06.66.72,1.65,1.08,2.97,1.08.63,0,1.54-.07,2.71-.22,1.18-.14,2.17-.33,2.97-.56l.86,3.01c-1.55.8-3.19,1.41-4.91,1.81Z"/><path class="cls-1" d="m466.7,62.97c-1.41.54-2.51.82-3.31.82-1.09,0-1.98-.34-2.67-1.03-.69-.69-1.18-2.04-1.46-4.05-2.01,1.72-3.99,2.98-5.94,3.79-1.95.8-3.82,1.21-5.6,1.21-4.3,0-7.26-1.23-8.87-3.7-1.61-2.47-2.41-6.03-2.41-10.67v-2.07c0-.98.01-2.04.04-3.19.03-1.15.04-2.28.04-3.4v-2.8c0-2.01-.06-3.43-.17-4.26-.12-.83-.34-1.42-.69-1.76-.4-.4-.99-.72-1.76-.95-.77-.23-1.91-.46-3.4-.69v-2.58c1.55-.46,3.31-.86,5.29-1.21,1.98-.34,3.66-.52,5.04-.52.75,0,1.3.22,1.68.65.37.43.56.99.56,1.68,0,.52-.03,1.46-.09,2.84-.06,1.38-.1,2.97-.13,4.78-.03,1.81-.07,3.69-.13,5.64-.06,1.95-.09,3.76-.09,5.42,0,2.07.11,3.85.34,5.34.23,1.49.65,2.7,1.25,3.62.6.92,1.42,1.59,2.45,2.02,1.03.43,2.35.65,3.96.65,1.38,0,2.8-.27,4.26-.82,1.46-.54,2.85-1.22,4.17-2.02v-17.91c0-1.89-.04-3.27-.13-4.13s-.33-1.46-.73-1.81c-.46-.4-1.11-.7-1.94-.9-.83-.2-2.17-.44-4-.73v-2.58c.75-.17,1.61-.36,2.58-.56.97-.2,1.95-.39,2.93-.56.97-.17,1.92-.31,2.84-.43.92-.11,1.69-.17,2.32-.17,1.66,0,2.5.83,2.5,2.5,0,.63-.03,1.65-.09,3.06-.06,1.41-.12,3.1-.17,5.08-.06,1.98-.12,4.19-.17,6.63-.06,2.44-.09,5.01-.09,7.7,0,1.49.06,2.67.17,3.53.11.86.29,1.58.52,2.15.23.46.52.8.86,1.03.34.23.92.34,1.72.34.29,0,.79-.01,1.51-.04.72-.03,1.36-.1,1.94-.22v2.67c-1.89,1.21-3.54,2.08-4.95,2.63Z"/><path class="cls-1" d="m516.93,60.35c-3.85,2.3-6.66,3.44-8.44,3.44-1.32,0-2.28-.46-2.88-1.38-.6-.92-.99-2.18-1.16-3.79-1.84,1.72-3.77,3.03-5.81,3.92-2.04.89-4.23,1.33-6.58,1.33s-4.46-.46-6.33-1.38c-1.87-.92-3.46-2.18-4.78-3.79-1.32-1.61-2.32-3.47-3.01-5.6-.69-2.12-1.03-4.39-1.03-6.8,0-2.98.47-5.75,1.42-8.31.95-2.55,2.29-4.75,4.05-6.59,1.75-1.84,3.86-3.28,6.33-4.35,2.47-1.06,5.22-1.59,8.26-1.59.92,0,2.04.07,3.36.22,1.32.14,2.64.36,3.96.65v-8.44c0-1.55-.01-2.85-.04-3.92-.03-1.06-.09-1.94-.17-2.63-.09-.69-.2-1.23-.34-1.64-.14-.4-.33-.77-.56-1.12-.46-.63-1.06-1.1-1.81-1.42-.75-.31-1.72-.56-2.93-.73v-1.89c2.75-1.84,4.93-3.06,6.54-3.66,1.61-.6,2.73-.9,3.36-.9.57,0,1.03.17,1.38.52.34.34.52,1.03.52,2.07v8.44c0,3.39-.01,7.16-.04,11.32-.03,4.16-.04,8.67-.04,13.52v15.11c0,1.61.07,2.87.22,3.79.14.92.36,1.62.65,2.11.29.49.63.79,1.03.9.4.12.89.17,1.46.17.92,0,2.07-.09,3.44-.26v2.67Zm-12.65-22.9c0-1.43-.04-2.55-.13-3.36-.09-.8-.3-1.43-.65-1.89-.58-.75-1.58-1.36-3.01-1.85-1.43-.49-3.1-.73-4.99-.73-1.72,0-3.31.29-4.78.86-1.46.57-2.73,1.42-3.79,2.54-1.06,1.12-1.91,2.55-2.54,4.3-.63,1.75-.95,3.77-.95,6.07,0,5.22,1.03,9.1,3.1,11.62,2.07,2.53,4.79,3.79,8.18,3.79,2.12,0,3.93-.33,5.42-.99,1.49-.66,2.87-1.42,4.13-2.28v-18.08Z"/><path class="cls-1" d="m539.91,62.93c-.86,0-1.74-.01-2.62-.04-.89-.03-1.76-.06-2.63-.09-.86-.03-1.67-.04-2.41-.04h-1.81c-.92,0-2.27.01-4.05.04-1.78.03-3.56.07-5.34.13v-3.01c1.95-.23,3.29-.4,4-.52.72-.11,1.22-.31,1.51-.6.23-.23.42-.65.56-1.25.14-.6.21-1.62.21-3.06v-7.7c0-1.35-.01-2.65-.04-3.92-.03-1.26-.06-2.37-.09-3.31-.03-.95-.04-1.62-.04-2.02-.12-.98-.21-1.71-.3-2.19-.09-.49-.27-.9-.56-1.25-.4-.52-1.02-.95-1.85-1.29-.83-.34-1.82-.6-2.97-.77v-1.89c2.18-1.66,4.06-2.85,5.64-3.57,1.58-.72,2.83-1.08,3.74-1.08,1.61,0,2.41,1.15,2.41,3.44v8.52c0,1.84-.02,3.73-.04,5.68-.03,1.95-.04,3.74-.04,5.38v5.9c0,1.49.04,2.5.13,3.01s.24.92.47,1.21c.17.29.69.53,1.55.73.86.2,2.38.39,4.56.56v3.01Zm-6.2-53.37c0,1.32-.39,2.45-1.16,3.4-.77.95-1.91,1.42-3.4,1.42-1.38,0-2.45-.47-3.23-1.42-.78-.95-1.16-2.05-1.16-3.31s.42-2.45,1.25-3.4c.83-.95,1.94-1.42,3.31-1.42,1.55,0,2.67.46,3.36,1.38.69.92,1.03,2.04,1.03,3.36Z"/><path class="cls-1" d="m579.86,44.08c0,3.27-.47,6.14-1.42,8.61-.95,2.47-2.21,4.53-3.79,6.2-1.58,1.67-3.43,2.93-5.55,3.79-2.12.86-4.36,1.29-6.71,1.29-2.81,0-5.29-.47-7.45-1.42s-3.95-2.28-5.38-4c-1.44-1.72-2.53-3.76-3.27-6.11-.75-2.35-1.12-4.94-1.12-7.75,0-2.98.47-5.67,1.42-8.05.95-2.38,2.22-4.42,3.83-6.11,1.61-1.69,3.47-2.98,5.6-3.87,2.12-.89,4.39-1.33,6.8-1.33,2.81,0,5.28.45,7.4,1.33,2.12.89,3.9,2.15,5.34,3.79,1.43,1.64,2.51,3.62,3.23,5.94.72,2.32,1.08,4.89,1.08,7.7Zm-6.63,1.38c0-2.47-.2-4.71-.6-6.71-.4-2.01-1.03-3.73-1.89-5.17-.86-1.43-1.97-2.54-3.31-3.31-1.35-.77-2.94-1.16-4.78-1.16-3.39,0-6.01,1.26-7.88,3.79-1.87,2.53-2.8,6.06-2.8,10.59,0,5.62.96,9.8,2.88,12.53,1.92,2.73,4.52,4.09,7.79,4.09,3.44,0,6.07-1.26,7.88-3.79,1.81-2.52,2.71-6.14,2.71-10.85Z"/><path class="cls-1" d="m590.66,55.22c.43,1.29.87,2.2,1.33,2.71.46.63,1.25,1.15,2.37,1.55,1.12.4,2.8.6,5.04.6,2.07,0,3.73-.47,4.99-1.42,1.26-.95,1.89-2.22,1.89-3.83,0-1.03-.37-2.02-1.12-2.97-.75-.95-2.24-1.94-4.48-2.97l-5.68-2.58c-2.64-1.21-4.46-2.65-5.47-4.35-1-1.69-1.51-3.6-1.51-5.72,0-1.49.29-2.9.86-4.22.57-1.32,1.43-2.48,2.58-3.49,1.15-1,2.54-1.79,4.18-2.37,1.63-.57,3.54-.86,5.72-.86,3.04,0,5.39.34,7.06,1.03.75.29,1.23.66,1.46,1.12.23.46.4.98.52,1.55.17,1.15.29,2.37.34,3.66.06,1.29.09,2.54.09,3.75l-2.84.17c-.29-1.03-.6-2.05-.95-3.06-.34-1-.66-1.71-.95-2.11-.46-.8-1.16-1.39-2.11-1.76-.95-.37-2.28-.56-4-.56-2.3,0-3.93.55-4.91,1.64-.98,1.09-1.46,2.3-1.46,3.62,0,.57.04,1.12.13,1.64s.33,1.05.73,1.59c.4.55.97,1.09,1.72,1.64.75.55,1.78,1.11,3.1,1.68l5.08,2.24c1.61.69,2.9,1.42,3.87,2.2.97.77,1.72,1.56,2.24,2.37.52.8.85,1.64.99,2.5.14.86.22,1.72.22,2.58,0,3.21-1.16,5.9-3.49,8.05-2.32,2.15-5.87,3.23-10.63,3.23-1.44,0-2.9-.13-4.39-.39-1.49-.26-2.73-.62-3.7-1.08-.69-.29-1.25-.73-1.68-1.33-.43-.6-.7-1.22-.82-1.85-.23-1.15-.37-2.47-.43-3.96-.06-1.49-.09-2.9-.09-4.22l3.01-.17c.34,1.49.73,2.88,1.16,4.17Z"/><path class="cls-1" d="m676.36,53.98c-.29,2.07-.66,3.93-1.12,5.6-.34,1.32-.82,2.19-1.42,2.63-.6.43-1.85.65-3.74.65h-33.92v-3.01c1.84-.11,3.28-.26,4.35-.43,1.06-.17,1.79-.49,2.2-.95.34-.34.54-.99.6-1.94.06-.95.09-2.08.09-3.4V16.7c0-1.78-.04-2.97-.13-3.57s-.27-1.05-.56-1.33c-.34-.34-1.02-.6-2.02-.77-1-.17-2.51-.34-4.52-.52v-3.1c2.07.06,4.09.1,6.07.13,1.98.03,3.49.04,4.52.04,1.15,0,2.71-.01,4.69-.04,1.98-.03,3.97-.07,5.98-.13v3.1c-3.79.17-6,.63-6.63,1.38-.23.29-.4.75-.52,1.38-.12.63-.17,1.75-.17,3.36v38.31c0,1.15.14,1.97.43,2.45.29.49.86.82,1.72.99,1.09.23,2.2.39,3.31.47,1.12.09,2.14.13,3.06.13,3.5,0,6.11-.2,7.83-.6,1.72-.4,2.96-1,3.7-1.81,1.03-1.09,2.32-3.9,3.87-8.44l2.93.52c-.12,1.49-.32,3.27-.6,5.34Z"/><path class="cls-1" d="m721.46,53.98c-.29,2.07-.66,3.93-1.12,5.6-.34,1.32-.82,2.19-1.42,2.63-.6.43-1.85.65-3.74.65h-33.92v-3.01c1.84-.11,3.28-.26,4.35-.43,1.06-.17,1.79-.49,2.2-.95.34-.34.54-.99.6-1.94.06-.95.09-2.08.09-3.4V16.7c0-1.78-.04-2.97-.13-3.57s-.27-1.05-.56-1.33c-.34-.34-1.02-.6-2.02-.77-1-.17-2.51-.34-4.52-.52v-3.1c2.07.06,4.09.1,6.07.13,1.98.03,3.49.04,4.52.04,1.15,0,2.71-.01,4.69-.04,1.98-.03,3.97-.07,5.98-.13v3.1c-3.79.17-6,.63-6.63,1.38-.23.29-.4.75-.52,1.38-.12.63-.17,1.75-.17,3.36v38.31c0,1.15.14,1.97.43,2.45.29.49.86.82,1.72.99,1.09.23,2.2.39,3.31.47,1.12.09,2.14.13,3.06.13,3.5,0,6.11-.2,7.83-.6,1.72-.4,2.96-1,3.7-1.81,1.03-1.09,2.32-3.9,3.87-8.44l2.93.52c-.12,1.49-.32,3.27-.6,5.34Z"/><path class="cls-1" d="m773.24,50.36c-.14.86-.3,1.77-.47,2.71-.17.95-.39,1.91-.65,2.88-.26.98-.56,1.89-.9,2.75-.34.92-.77,1.62-1.29,2.11-.52.49-1.09.88-1.72,1.16-.98.4-2.07.73-3.27.99-1.21.26-2.44.47-3.7.65-1.26.17-2.5.29-3.7.34-1.21.06-2.32.09-3.36.09-3.9,0-7.49-.6-10.76-1.81-3.27-1.21-6.1-2.98-8.48-5.34-2.38-2.35-4.25-5.26-5.59-8.74-1.35-3.47-2.02-7.47-2.02-12.01s.69-8.82,2.07-12.53c1.38-3.7,3.33-6.84,5.85-9.43,2.52-2.58,5.57-4.56,9.12-5.94,3.56-1.38,7.49-2.07,11.79-2.07,2.24,0,4.55.16,6.93.47,2.38.32,4.46.79,6.24,1.42,1.38.52,2.24,1.44,2.58,2.75.11.46.22,1.13.3,2.02.09.89.14,1.87.17,2.93.03,1.06.06,2.18.09,3.36.03,1.18.04,2.28.04,3.31l-3.01.26c-.46-1.89-.88-3.54-1.25-4.95-.37-1.41-.73-2.42-1.08-3.06-.46-1.03-1.26-1.84-2.41-2.41-1.09-.52-2.41-.93-3.96-1.25-1.55-.31-3.3-.47-5.25-.47-3.1,0-5.96.53-8.57,1.59-2.61,1.06-4.84,2.64-6.67,4.73-1.84,2.1-3.27,4.69-4.3,7.79-1.03,3.1-1.55,6.66-1.55,10.67,0,3.79.49,7.19,1.46,10.2.98,3.01,2.35,5.57,4.13,7.66,1.78,2.1,3.93,3.7,6.46,4.82,2.52,1.12,5.34,1.68,8.44,1.68,1.55,0,3.08-.11,4.61-.34,1.52-.23,2.77-.54,3.74-.95.75-.34,1.36-.72,1.85-1.12.49-.4.9-.8,1.25-1.21.57-.69,1.22-1.84,1.94-3.44.72-1.61,1.42-3.33,2.11-5.17l3.1.6c-.06.63-.16,1.38-.3,2.24Z"/></svg>