<?xml version="1.0" encoding="UTF-8"?>
<!-- Generator: Adobe Illustrator 24.1.0, SVG Export Plug-In . SVG Version: 6.00 Build 0)  -->
<svg version="1.1" id="Layer_1" xmlns="http://www.w3.org/2000/svg" xmlns:xlink="http://www.w3.org/1999/xlink" x="0px" y="0px" viewBox="0 0 178.6 180.9" style="enable-background:new 0 0 178.6 180.9;" xml:space="preserve">
<style type="text/css">
	.st0{fill:none;}
	.st1{fill:#FFFFFF;}
	.st2{fill:#DA1A32;}
</style>
<polygon class="st0" points="29.6,143.3 29.6,143.3 35.1,139.3 "/>
<polygon class="st0" points="81.4,173.1 81.4,173.1 76.3,172.3 "/>
<polygon class="st0" points="57.8,160.7 56.6,160.1 57.8,160.7 58.2,161.2 57.6,166.8 58.2,161.2 "/>
<path class="st0" d="M52.5,45.5c10.9,3.1,20.1,10.7,25.2,20.9c0.6,1.1,1.1,2.3,1.6,3.4l0.1,0.2l21.3-3.1c0.7-1.5,1.6-3,2.5-4.4  c0.5-0.8,1-1.5,1.6-2.2c5.6-7.5,13.6-12.9,22.6-15.2C105.4,27.2,74,27.4,52.5,45.5L52.5,45.5z"/>
<polygon class="st0" points="73.8,154.7 73.8,154.7 78.9,155.5 "/>
<polygon class="st0" points="54,165.2 56.3,160.3 56.6,160.1 56.3,160.3 "/>
<polygon class="st0" points="41.6,158 41.6,158 37.7,154.7 "/>
<polygon class="st0" points="85.6,7.4 75.2,8.5 76.1,17.2 75.2,8.5 "/>
<polygon class="st0" points="67.7,156.4 66.8,158.4 67.7,156.4 66.9,154.2 "/>
<polygon class="st0" points="66.1,21.6 67.3,18.7 65.3,14.2 67.3,18.7 "/>
<path class="st0" d="M46.5,36l-0.3-0.1L46.5,36z"/>
<path class="st0" d="M77,25.8l10.4-1.1L77,25.8z"/>
<polygon class="st0" points="71.3,27.1 66.6,29.1 66.6,29.1 71.3,27.1 66.1,21.6 "/>
<polygon class="st0" points="44.5,33.7 44.4,34.1 45.2,35 44.4,34.1 44.5,33.7 47.2,31.5 44.7,28.4 44.7,28.4 47.2,31.5 "/>
<polygon class="st0" points="42,30.6 41.6,30.6 40.5,29.2 41.6,30.6 "/>
<polygon class="st0" points="40.5,29.2 40.5,28.9 45.4,25 40.5,28.9 "/>
<polygon class="st0" points="44.5,146.2 44.5,145.8 45,145.2 44.5,145.8 "/>
<path class="st0" d="M46.8,133.8c-1.3-1.3-2.5-2.6-3.7-4.1C44.3,131.1,45.5,132.5,46.8,133.8z"/>
<polygon class="st0" points="22,132.4 21.3,136.9 25.6,142.7 21.3,136.9 "/>
<polygon class="st0" points="26.6,135.5 26.9,134.9 29,133.4 26.9,134.9 "/>
<polygon class="st0" points="31.8,131.8 32.6,131.8 32.6,131.8 "/>
<polygon class="st0" points="39.8,133.4 35.1,127 30.2,126.3 30.2,126.3 35.1,127 "/>
<path class="st0" d="M32.4,135.6l-2,1.5L32.4,135.6z"/>
<path class="st0" d="M90.2,149.1c15.6,0,30.5-6.2,41.5-17.2c1.9-1.9,3.6-3.9,5.2-6c-17.8-0.4-33.3-12.1-38.6-29l-18.7,2.7  c0,0.1-0.1,0.2-0.1,0.3c-0.5,1.1-1,2.1-1.5,3.1c-0.6,1.2-1.2,2.3-1.9,3.4s-1.3,2-2,3c-7.2,9.7-18.4,15.8-30.5,16.6  C54.7,140.5,71.9,149,90.2,149.1L90.2,149.1z"/>
<path class="st0" d="M28.4,138.5l-1-0.1L28.4,138.5z"/>
<path class="st1" d="M87.3,15.3l1.7-2L88.7,10l-3-2.4l-10.4,1l0.9,8.6l0.9,8.7l10.4-1.1l2.7-3.3l-0.4-4.3L87.3,15.3z M80.6,14.3  L80.4,12l0.2-0.3l2.1-0.2l0.8,0.3l0.4,0.7L84,13l-0.3,0.8L83,14.2l-2.1,0.2L80.6,14.3z M84.5,20.7l-0.9,0.6l-1.8,0.2l-0.4-0.3  L81,18.4l0.2-0.3l2-0.2l1,0.4l0.4,0.7l0.1,0.9L84.5,20.7z"/>
<polygon class="st1" points="51.5,31.9 46.5,36 46.5,36 46.5,36 46.2,35.9 45.9,35.9 45.2,35 44.4,34.1 44.5,33.7 47.2,31.5   44.7,28.4 42,30.6 41.6,30.6 40.5,29.2 40.5,28.9 45.4,25 41.8,22.7 34.2,28.9 45.2,42.4 53.1,36 "/>
<path class="st1" d="M66.1,21.6l1.2-2.9l-1.9-4.5l-4.2-1.7l-9.4,4l6.8,16l4.3-1.9l-2.2-5.1l0.1-0.3l1.3-0.5h0.6l3.9,4.4l4.7-2  L66.1,21.6z M62,19.9l-0.7,0.9l-1.9,0.8L59,21.4l-1.2-2.9l0.1-0.3l1.9-0.8l1.1,0.1l0.8,0.7l0.2,0.6L62,19.9z"/>
<polygon class="st1" points="140.9,24.5 137.1,26.7 140.3,29.5 140.3,29.8 131.7,39.6 135.4,42.8 144,33 144.3,33 147.5,35.8   149.2,31.8 "/>
<path class="st1" d="M120.5,12.9l-7.6,15.7l4.2,2.1l2.4-5l0.3-0.1l1.2,0.6l0.3,0.4l-0.8,5.8l4.6,2.2l0.7-7.5l3-1l2.1-4.4l-1.5-4.3  L120.5,12.9z M125.6,22.1l-0.9,0.7h-1.1l-1.9-0.9l-0.1-0.3l1.3-2.8l0.3-0.1l1.9,0.9l0.7,0.9v1.1L125.6,22.1z"/>
<polygon class="st1" points="103.8,12.6 109.9,13.6 109.3,9.5 99.6,7.8 96.6,25 106.7,26.7 108.8,22.8 102.4,21.7 102.1,21.2   102.5,18.9 102.8,18.7 106.2,19.3 106.9,15.4 103.4,14.8 103.2,14.5 103.5,12.8 "/>
<polygon class="st1" points="146.4,137.8 149.5,137.2 152.4,134.6 153.3,134.4 154.1,135 154.4,135.6 154.3,136.5 150.8,141.3   154.9,142.5 159.2,136.5 158.5,132 154.7,129.3 151.6,129.8 148.6,132.6 147.9,132.7 147.4,132.4 147.1,131.7 147.2,130.9   150.4,126.5 146.4,125.3 142.4,130.9 143.1,135.4 "/>
<path class="st1" d="M78.9,155.5l-5.1-0.8l-2.6,16.8l5.1,0.8l5.1,0.8l3.4-2.5l0.6-4l-1.8-2.5l2.2-1.6l0.5-3.2l-2.2-3.1L78.9,155.5z   M80.1,167.8l-0.4,0.6l-1.2,0.4l-1.7-0.3l-0.3-0.5l0.4-2.5l0.3-0.2l1.9,0.3l1,0.7l0.2,0.7L80.1,167.8z M81,161.3l-0.4,0.6l-0.9,0.3  l-2-0.3l-0.2-0.3l0.3-2.3l0.3-0.2l2,0.3l0.7,0.5l0.2,0.7V161.3z"/>
<polygon class="st1" points="97.2,168.6 97.1,166.4 97.3,166.1 100.7,165.8 100.3,161.9 96.9,162.2 96.7,161.9 96.5,160.3 96.8,160   102.9,159.5 101.2,155.7 91.4,156.6 93,173.5 103.2,172.6 104.1,168.4 97.7,169 "/>
<polygon class="st1" points="132.6,146.3 136,143.8 132.6,141.3 123.5,147.7 124.7,151.8 128.1,149.4 128.5,149.4 135.8,159.8   139.8,157 132.5,146.6 "/>
<polygon class="st1" points="139.6,135.4 137.7,135.4 135.6,137.5 135.6,139.4 137.5,141.3 139.4,141.3 140.5,140.2 141.2,140.9   141.6,142 141,143.8 141.3,144.6 142.2,143.6 143.2,140.8 142.2,137.9 "/>
<path class="st1" d="M120.7,160.3l1.4-2.9l-1.6-4.3l-4.1-1.9l-9.6,3.5l5.8,15.9l4.4-1.6l-1.8-5.1l0.2-0.3l1.3-0.5l0.6,0.1l3.5,4.4  l5.3-1.9l-2-1.7L120.7,160.3z M116.8,158.6l-0.8,0.9l-1.9,0.7l-0.3-0.2l-1.1-3l0.2-0.3l1.9-0.7l1.2,0.1l0.9,0.8l0.2,0.5L116.8,158.6  z"/>
<polygon class="st1" points="47.1,148.4 44.5,146.2 44.5,145.8 45,145.2 45.5,144.6 45.9,144.6 50.6,148.5 52.1,144.6 44.5,138.4   33.7,151.5 37.7,154.7 41.6,158 45.2,155.7 40.2,151.6 40.2,151 41.7,149.3 42,149.2 44.6,151.4 "/>
<polygon class="st1" points="32.4,135.6 30.4,137.1 28.4,138.5 28.4,138.5 28.4,138.5 27.4,138.4 26.5,137.2 26.3,136 26.6,135.5   26.9,134.9 29,133.4 31.1,131.8 31.8,131.8 32.6,131.8 32.6,131.8 32.6,131.8 33.9,132.4 37.2,137 39.8,133.4 35.1,127 30.2,126.3   22,132.4 21.3,136.9 25.6,142.7 29.6,143.3 35.1,139.3 "/>
<path class="st1" d="M66.9,154.2l-0.8-2.1l-9.3-4.3l-7.1,15.4l4.3,2l2.2-4.9l0.4-0.1l1.2,0.6l0.4,0.5l-0.6,5.6l4.7,2.1l0.5-7.3  l3-1.1l1-2.1l1-2.1L66.9,154.2z M62.1,156.9l-0.9,0.8H60l-1.8-0.9l-0.1-0.4l1.3-2.9l0.4-0.1l1.8,0.8l0.8,0.9v1.2L62.1,156.9z"/>
<polygon class="st2" points="60.9,17.5 59.8,17.4 57.9,18.3 57.7,18.6 59,21.4 59.3,21.6 61.2,20.7 62,19.9 62,18.8 61.8,18.2 "/>
<polygon class="st2" points="83.7,13.8 84,13 83.9,12.5 83.5,11.8 82.7,11.5 80.6,11.7 80.4,12 80.6,14.2 80.9,14.4 83,14.2 "/>
<polygon class="st2" points="84.3,18.3 83.2,17.9 81.2,18.1 81,18.4 81.3,21.1 81.7,21.5 83.6,21.3 84.5,20.7 84.8,19.9 84.7,19 "/>
<polygon class="st2" points="125.1,19.5 123.2,18.6 122.9,18.8 121.6,21.5 121.7,21.9 123.6,22.8 124.7,22.8 125.6,22.1 125.8,21.5   125.8,20.4 "/>
<polygon class="st2" points="61.5,154.3 59.7,153.4 59.4,153.6 58,156.5 58.1,156.8 60,157.7 61.2,157.6 62.1,156.9 62.3,156.4   62.3,155.2 "/>
<polygon class="st2" points="80.2,159.4 78.2,159.1 77.9,159.3 77.5,161.6 77.7,161.9 79.7,162.2 80.6,161.9 81,161.3 81.1,160.6   80.9,159.9 "/>
<polygon class="st2" points="79,165.6 77.2,165.3 76.9,165.5 76.5,168.1 76.8,168.5 78.5,168.8 79.7,168.4 80.1,167.8 80.3,167   80,166.3 "/>
<polygon class="st2" points="115.9,156.1 114.7,155.9 112.8,156.6 112.6,157 113.7,160 114.1,160.2 116,159.5 116.8,158.6   116.9,157.4 116.8,156.9 "/>
<path class="st2" d="M133.5,133.8c-23.9,23.9-62.7,23.9-86.6,0l0,0c-1.3-1.3-2.5-2.6-3.7-4.1c-0.6-0.7-1.2-1.4-1.7-2.2  c-0.4-0.5-0.7-1-1-1.4c-0.8,0-1.6,0-2.4-0.1c-4.6-0.3-9-1.5-13.2-3.3l-13.3,6.6c21.5,43.4,74.1,61.2,117.6,39.8  c17.3-8.5,31.2-22.5,39.8-39.8l-14.3-7.1c-4.5,2.1-9.4,3.3-14.4,3.6C138.2,128.7,135.9,131.3,133.5,133.8z M29.6,143.3l-4-0.6  l-4.3-5.9l0.7-4.5l8.2-6.1l0,0l4.9,0.7l4.7,6.3l-2.5,3.6l-3.3-4.5l-1.3-0.7l0,0H32h-0.7l-2.1,1.6l-2.1,1.6l-0.3,0.5l-0.3,0.5  l0.2,1.2l0.9,1.2l0.9,0.1l0,0l2-1.5l2-1.5l0,0l2.7,3.7L29.6,143.3L29.6,143.3z M41.6,149.3l-1.5,1.7v0.6l5,4.1l-3.6,2.3l0,0l-4-3.2  l-4-3.3l10.8-13.1l7.6,6.3l-1.5,3.8l-4.7-3.9h-0.4l-0.5,0.6l-0.5,0.6v0.4l2.6,2.1l-2.5,3l-2.5-2.1L41.6,149.3z M66.8,158.4l-1,2.1  l-3,1.1l-0.5,7.4l-4.7-2.1l0.6-5.6l-0.4-0.5l-1.2-0.6l-0.4,0.1l-2.3,4.9l-4.3-2l7.1-15.4l9.3,4.3l0.8,2.1l0.8,2.1L66.8,158.4z   M85.8,162.6l-2.2,1.6l1.8,2.5l-0.6,4l-3.4,2.5l0,0l-5.1-0.8l-5.1-0.8l2.7-16.8l0,0l5.1,0.8l5.1,0.8l2.2,3.1L85.8,162.6z   M103.1,172.6L93,173.5l-1.5-16.9l9.8-0.9l1.6,3.8l-6.1,0.5l-0.2,0.3l0.1,1.6l0.3,0.2l3.4-0.3l0.3,3.9l-3.4,0.3l-0.2,0.3l0.2,2.3  l0.4,0.4l6.4-0.6L103.1,172.6z M120.7,167.6l-3.5-4.4l-0.6-0.1l-1.3,0.5l-0.2,0.3l1.9,5.1l-4.4,1.6l-5.8-15.9l9.6-3.5l4.1,1.9  l1.6,4.3l-1.4,2.9l3.3,3.7l2,1.7L120.7,167.6z M135.8,159.7l-7.3-10.4l-0.4-0.1l-3.4,2.4l-1.2-4.1l9-6.3l3.4,2.5l-3.4,2.4l-0.1,0.4  l7.4,10.4L135.8,159.7z M142.2,143.6l-0.9,1l-0.3-0.9l0.6-1.7l-0.4-1.1l-0.7-0.7l-1,1h-1.9l-1.9-1.9v-1.9l2.1-2.1h1.9l2.6,2.6l1,2.8  L142.2,143.6z M146.4,125.2l3.9,1.2l-3.2,4.4l-0.1,0.8l0.4,0.7l0.4,0.3l0.7-0.1l3-2.8l3.1-0.5l3.8,2.7l0.7,4.5l-4.3,6l-4.1-1.3  l3.5-4.8l0.1-0.8l-0.4-0.7l-0.8-0.6l-0.8,0.2l-2.9,2.7l-3.1,0.5l-3.3-2.4l-0.7-4.5L146.4,125.2z"/>
<path class="st2" d="M159.2,36.3C129.3-1.8,74.2-8.6,36,21.3c-5.6,4.4-10.6,9.4-15,15l10.3,8.5l0.3,0.2c5.8-1.4,11.8-1.5,17.6-0.3  l0.2-0.2l0.2-0.1c2.8-2.4,5.8-4.6,9-6.5c1.6-0.9,3.2-1.8,4.8-2.6c3.3-1.6,6.7-2.9,10.3-3.9c1.8-0.5,3.6-0.9,5.4-1.2s3.6-0.6,5.5-0.8  s3.7-0.2,5.6-0.2c14.8,0,29.1,5.4,40.2,15.1l0.1,0.1c6-1,12.1-0.7,17.9,0.9l0.2-0.2L159.2,36.3z M34.2,28.9l7.6-6.2l3.5,2.3  l-4.8,3.9v0.3l1.1,1.4H42l2.7-2.2l0,0l2.5,3.1l-2.7,2.2V34l0.7,0.9l0.7,0.9h0.3h0.3l0,0l5-4.1l1.6,4.2l-7.9,6.4L34.2,28.9z   M66.6,29.1L66.6,29.1l-3.9-4.4h-0.6l-1.3,0.5l-0.1,0.3l2.2,5.1l-4.3,1.9l-6.8-16l9.4-4l4.2,1.7l1.9,4.5l-1.2,2.9l5.2,5.5L66.6,29.1  z M87.4,24.7L77,25.8l0,0l-0.9-8.7l-0.9-8.6l10.4-1.1l3,2.4l0.4,3.3l-1.7,2l2.3,1.9l0.4,4.3L87.4,24.7z M103.4,14.7l3.4,0.6  l-0.7,3.9l-3.4-0.6l-0.3,0.2l-0.4,2.3l0.3,0.4l6.4,1.1l-2.1,3.9l-10-1.7l3-17.1l9.7,1.7l0.6,4.1l-6.1-1.1l-0.2,0.2l-0.3,1.7  L103.4,14.7z M129.1,26l-3,1l-0.7,7.5l-4.6-2.2l0.8-5.8l-0.3-0.4l-1.2-0.6l-0.3,0.1l-2.4,5l-4.2-2.1l7.6-15.7l9.2,4.4l1.5,4.3  L129.1,26z M144.3,33H144l-8.6,9.8l-3.6-3.2l8.6-9.8v-0.4l-3.2-2.8l3.7-2.2l8.3,7.3l-1.7,4L144.3,33z"/>
<path class="st1" d="M154.6,122.2l14.3,7.1c-21.5,43.4-74.1,61.2-117.6,39.8C34,160.6,20,146.6,11.5,129.4l13.3-6.6  c-1.1-0.5-2.2-1-3.3-1.6L7.9,128l0.1,0.2c20.8,45.4,74.5,65.4,119.9,44.6c19.7-9,35.5-24.8,44.6-44.6l0.1-0.2l-14.6-7.3  C156.8,121.2,155.7,121.7,154.6,122.2z"/>
<path class="st1" d="M31.7,45l-0.3-0.2l-10.3-8.5c29.9-38.1,85-44.9,123.2-15c5.6,4.4,10.6,9.4,15,15L148.6,45l-0.2,0.2  c1.1,0.3,2.2,0.7,3.3,1.1l11.3-9.2l-0.1-0.2c-8.3-11.2-19-20.4-31.4-26.8c-26-13.4-56.8-13.4-82.8,0c-12.4,6.4-23.1,15.6-31.4,26.8  L17.2,37l11,9C29.3,45.6,30.5,45.3,31.7,45z"/>
<ellipse transform="matrix(0.7071 -0.7071 0.7071 0.7071 -37.6665 89.9649)" class="st1" cx="89.8" cy="90.4" rx="61.7" ry="61.7"/>
<path class="st2" d="M24.8,122.7c4.2,1.8,8.7,2.9,13.2,3.3c0.8,0.1,1.6,0.1,2.4,0.1c0.3,0,0.6,0,0.8,0c0.8,0,1.6,0,2.4-0.1  c12.2-0.8,23.3-6.9,30.6-16.7c0.7-0.9,1.4-1.9,2-3s1.3-2.2,1.8-3.4c0.5-1,0.9-2,1.4-3.1c0-0.1,0.1-0.2,0.1-0.3l18.7-2.8  c5.3,16.9,20.8,28.6,38.6,29h0.8c0.9,0,1.7,0,2.6-0.1c5-0.3,9.9-1.5,14.4-3.6c1.1-0.5,2.2-1.1,3.3-1.7c3.2-1.8,6.2-4.1,8.8-6.7  c15.6-15.7,16-40.9,0.9-57c-0.8-0.9-1.7-1.7-2.6-2.5c-3.9-3.5-8.3-6.2-13.2-8c-1.1-0.4-2.2-0.8-3.3-1.1c-5.8-1.6-11.9-1.9-17.9-0.9  c-1.1,0.2-2.2,0.4-3.3,0.7c-9.1,2.3-17.1,7.7-22.6,15.2c-0.5,0.7-1,1.4-1.6,2.2c-0.9,1.4-1.7,2.9-2.5,4.4l-21.2,3.2l-0.1-0.2  c-0.5-1.2-1-2.3-1.6-3.4C72.5,56,63.4,48.5,52.4,45.3c-1-0.3-2.1-0.5-3.2-0.8c-5.8-1.2-11.8-1.1-17.6,0.3c-1.2,0.3-2.3,0.6-3.5,1  C6.7,53.1-5,76.3,2.1,97.9c1.1,3.5,2.7,6.7,4.7,9.8c3.7,5.6,8.7,10.2,14.6,13.4C22.5,121.7,23.6,122.2,24.8,122.7z M9.2,106.1  C-2.4,88.5,2.4,64.8,20,53.1s41.3-6.8,53,10.8c0.8,1.2,1.5,2.5,2.2,3.7c0.4,0.9,0.9,1.8,1.2,2.7L68,71.6l0.4,2.8l34-5h0.1l0.1-0.1  l0.1-0.1l0,0c0.8-1.8,1.8-3.6,2.8-5.2c0.5-0.7,0.9-1.4,1.4-2.1c12.6-16.9,36.5-20.4,53.4-7.8c0.9,0.7,1.9,1.4,2.7,2.2  c0.8,0.7,1.6,1.5,2.4,2.3c14.4,15.4,13.6,39.6-1.8,54s-39.6,13.6-54-1.8c-3.9-4.1-6.8-9.1-8.5-14.5L111,95l-0.4-2.8L77.4,97l0,0  l-0.1,0.2l0,0l0,0c-0.2,0.5-0.4,1-0.6,1.6c-0.4,1-0.8,2-1.3,2.9s-1.1,2.2-1.8,3.2s-1.2,1.9-1.8,2.7c-12.5,17-36.4,20.6-53.4,8.1  C14.9,113,11.8,109.7,9.2,106.1L9.2,106.1z"/>
<path class="st1" d="M136,109.5c-3.4-0.2-6.8-1.2-9.7-3c1.1,1.5,2.5,2.8,4.1,3.8s3.5,1.6,5.4,1.7c1.6,0.1,3.2-0.2,4.7-0.8  c2-0.8,3.8-2.1,5.3-3.7C142.8,109,139.4,109.7,136,109.5z"/>
<path class="st1" d="M125.5,104c0.9,0.7,1.8,1.3,2.8,1.9c9.1,4.8,20.3,1.4,25.1-7.7c0.1-0.3,0.3-0.5,0.4-0.8  c0.1-0.3,0.3-0.6,0.4-0.9c0.1-0.2,0.3-0.4,0.5-0.4l0,0c0.4-0.1,0.8-0.3,1.2-0.5c-1.5-0.1-3-0.9-4-2l0,0c-0.3-0.3-0.3-0.8,0-1.1l0,0  c0.3-0.3,0.8-0.3,1.1,0l0,0c1.8,1.9,4.7,2,6.6,0.3c0.9-0.8,1.4-2,1.5-3.2v-0.3c-0.1-2.6-2.2-4.6-4.8-4.6c-1.1,0-2.2,0.5-3.1,1.2  c-0.3,0.3-0.8,0.3-1.1,0s-0.3-0.8,0-1.1c0.6-0.6,1.3-1,2.1-1.2l0.4-0.2l0,0c-1.2-4.4-4.1-6.8-7.6-8.5c-0.7-0.3-1.4-0.7-2.1-1  l3.6-2.3l10.3-6.6l-0.4-0.4c0,0-16,7.9-18.4,9.1c-3.1,1.4-6.5,2.1-9.9,2.1c-3.9-0.2-8.8-2.1-11-5.3c-0.1-0.1-0.1-0.2-0.2-0.2  c0,0.1,0.1,0.2,0.2,0.2c-0.8,1.6-1.3,3.3-1.6,5c-0.1,0.7-0.2,1.5-0.2,2.2c0,0.2,0,0.3,0,0.4c0,0.5,0,1.1,0,1.6  c2.3-1.6,5.5-1.1,7.1,1.3c0.2,0.3,0.4,0.6,0.5,1c0.6-0.2,1.3-0.3,2-0.3h0.2c0.7,0.1,1.3,0.2,1.9,0.6c1.3-2.5,4.4-3.5,6.9-2.2  c1.8,0.9,2.9,2.8,2.8,4.9c0,0.4-0.1,0.7-0.2,1.1c-0.7,2.8-3.5,4.4-6.3,3.7c-2.2-0.6-3.7-2.5-3.8-4.7c0-0.2,0-0.4,0-0.6  s0.1-0.4,0.1-0.7l-0.2-0.1c-0.4-0.2-0.8-0.3-1.2-0.3H127c-0.5,0-1.1,0.1-1.6,0.3c0,0.3,0,0.5,0,0.8c0,0.2,0,0.3,0,0.5  c-0.2,1.3-0.9,2.5-2,3.3c-0.9,0.8-2.1,1.2-3.3,1.1c-0.5,0-1.1-0.2-1.6-0.4c0,0.6,0,1.2,0,1.8s0.1,1.1,0.2,1.7  C119.3,96.8,121.8,101.1,125.5,104z M136.5,92.4c1.4-0.7,3.2-0.4,4.2,0.8c0.7,0.9,0.9,2.2,0.6,3.3c0,0.1-0.1,0.2-0.1,0.3  c-0.1,0.1-0.2,0.1-0.3,0.1s-0.1-0.1-0.1-0.2c0-0.3,0-0.5,0-0.8c0-0.7-0.3-1.4-0.8-1.9c-0.8-0.9-2.1-1.4-3.3-1.2  C136.4,92.8,136.3,92.5,136.5,92.4L136.5,92.4z M132.9,98.5c1.3-0.6,2.6-1.4,3.7-2.4c0.3-0.2,0.7-0.2,1,0.1c0.3,0.3,0.3,0.8,0,1.3  c-1.1,1.6-2.5,2.9-4.2,3.8c-1.4,0.5-2.8,0.9-4.2,1c-0.7,0.1-1.5,0-2.2-0.1c-0.1,0-0.2-0.1-0.3-0.1c-0.8-0.3-1.3-1-1.2-1.8  c0-0.9,0.7-1.6,1.6-1.7C128.2,98.6,130.4,99.5,132.9,98.5L132.9,98.5z M127.5,87.9c0.3,0,0.5,0.1,0.8,0.2s0.6,0.2,0.9,0.4  c0.3,0.2,0.3,0.6,0.1,0.9c-0.1,0.2-0.4,0.3-0.6,0.2c-0.1,0-0.2,0-0.3-0.1c-0.3-0.2-0.6-0.3-1-0.3c-1.1,0-1.9,0.8-2,1.8  c0,0.2,0,0.4,0.1,0.6c0.1,0.4,0.4,0.8,0.7,1.1c0.3,0.2,0.7,0.4,1.1,0.4s0.9-0.1,1.2-0.3l0,0c0.2-0.1,0.4-0.1,0.6-0.1  c0.1,0,0.2,0.1,0.2,0.2c0.2,0.3,0.1,0.7-0.1,0.9c-0.6,0.4-1.3,0.6-2,0.6s-1.3-0.3-1.8-0.7c-0.4-0.3-0.7-0.6-0.9-1.1  c-0.3-0.5-0.4-1.1-0.3-1.6C124.3,89.2,125.7,87.8,127.5,87.9C127.5,87.8,127.5,87.8,127.5,87.9L127.5,87.9z"/>
<path class="st1" d="M132.6,87.9c0.3,0.1,0.6,0.2,0.9,0.2c1.5,0.1,2.9-0.8,3.5-2.2c0.2-0.4,0.3-0.8,0.3-1.2c0-0.4,0-0.8-0.1-1.2  c-0.6-1.9-2.6-3-4.5-2.4c-1.1,0.3-2,1.2-2.4,2.3c-0.1,0.3-0.2,0.7-0.2,1C130,85.9,131,87.4,132.6,87.9L132.6,87.9z M132.8,83.7  c-0.1-0.1-0.3-0.2-0.5-0.3c0.5-0.8,1.6-1,2.4-0.5c0.4,0.3,0.7,0.7,0.7,1.2c0,0.1,0,0.2,0,0.3c0,0.6-0.3,1.1-0.8,1.4  c-0.6,0.4-1.3,0.4-1.9,0c-0.2-0.2-0.4-0.4-0.6-0.7c0.5,0,0.8-0.3,0.8-0.8C133,84.1,133,83.9,132.8,83.7z"/>
<polygon class="st1" points="104.8,77.1 103.3,77.3 103.1,77.6 102.4,84.6 102.7,84.8 104,84.7 105.1,84 105.7,82.9 106.2,78.4   105.8,77.5 "/>
<path class="st1" d="M120.1,87.5c0.5,0,0.9,0,1.3-0.2c0.8-0.3,1.5-0.8,1.9-1.5c0.3-0.5,0.5-1.1,0.6-1.8c0-0.1,0-0.3,0-0.4  c-0.1-2-1.9-3.5-3.9-3.3c-1.4,0.1-2.6,1-3.1,2.3c-0.2,0.7-0.2,1.5,0,2.2c0.3,1,1.1,1.9,2.1,2.3C119.4,87.3,119.7,87.4,120.1,87.5z   M119.5,83.3c-0.1-0.3-0.4-0.5-0.7-0.6c0.5-0.8,1.6-1,2.4-0.5c0.5,0.3,0.8,0.9,0.8,1.5v0.1c-0.1,0.7-0.6,1.3-1.3,1.4  c-0.2,0-0.3,0.1-0.5,0.1c-0.3,0-0.5-0.1-0.8-0.2c-0.3-0.2-0.5-0.5-0.7-0.8c0.5,0,0.8-0.4,0.8-0.8C119.5,83.5,119.5,83.4,119.5,83.3z  "/>
<path class="st1" d="M36.2,112.9l1.8-2.5l0.3-0.4c-0.5-0.1-1-0.3-1.6-0.4l-0.3-0.1l-0.5-0.2h-0.1l-0.3-0.1l-0.3-0.1l-0.3-0.2  l-0.3-0.1l-0.3-0.2l-0.2-0.1l-0.4-0.2l-0.5-0.2l-0.4-0.2l-0.4-0.3l-0.4-0.2l-0.4-0.3l-0.2-0.1l-0.2-0.2l-0.3-0.3l-0.2-0.1  c-0.1-0.1-0.2-0.1-0.2-0.2l-0.4-0.3l0,0l-0.3-0.3l-0.3-0.3l-0.3-0.3l-0.3-0.3l-0.1-0.1l-0.1-0.1l-0.2-0.2c-0.1-0.1-0.2-0.2-0.3-0.3  l-0.1-0.1l-0.2-0.3c-0.1-0.1-0.2-0.2-0.3-0.4l0,0l-0.3-0.4l-0.3-0.4l0,0l0-0.4l-0.1-0.1l-0.2-0.4v-0.1c-0.1-0.1-0.1-0.2-0.2-0.4l0,0  l-0.1-0.2l-0.5-0.9l0.5,0.9l0.1,0.2l0,0l-2.5,3.4l0.1,0.2c0.2,0.4,0.4,0.8,0.7,1.2c0.1,0.2,0.3,0.5,0.5,0.7c1,1.3,2.2,2.4,3.6,3.4  C31.1,111.4,33.6,112.4,36.2,112.9z"/>
<path class="st1" d="M41.2,123.2c12.1,0,23.5-5.8,30.7-15.6c0.7-0.9,1.3-1.8,1.8-2.7s1.2-2.1,1.8-3.2s0.9-1.9,1.3-2.9  c0.2-0.5,0.4-1,0.6-1.6c0.3-0.8,0,0,0,0l0,0l0.1-0.2l0,0l33.1-4.9L111,95l-9.8,1.4c6.4,20.1,27.9,31.2,48,24.9  c20.1-6.4,31.2-27.9,24.9-48c-1.7-5.4-4.6-10.4-8.5-14.6c-0.8-0.8-1.5-1.6-2.4-2.3c-15.7-14.1-39.8-12.8-53.9,2.8  c-0.8,0.9-1.6,1.8-2.3,2.8c-0.5,0.7-1,1.4-1.4,2.1c-1.1,1.6-2,3.4-2.8,5.2l0,0l-0.1,0.1l-0.1,0.1h-0.1l-34,5L68,71.6l8.4-1.2  c-0.4-0.9-0.8-1.8-1.2-2.7C65.6,48.9,42.6,41.4,23.8,51S-2.5,83.6,7.1,102.4C13.6,115.2,26.8,123.3,41.2,123.2L41.2,123.2z   M112,105.7l0.3-0.2c2-1.4,4.2-2.6,6.5-3.5c0.5-0.2,1-0.4,1.5-0.6l0.4-0.2c-0.6-0.9-1.2-1.8-1.7-2.8c-1.5-2.9-2.2-6.1-2.2-9.3  c0-0.3,0-0.6,0-0.9s0-0.4,0-0.6c-0.3-0.3-0.6-0.6-0.8-0.9c-0.5-0.7-0.9-1.5-1-2.4c0-0.3,0-0.6,0-0.9c0-0.5,0.1-1,0.3-1.5  c0.2-0.5,0.4-1,0.8-1.4c-0.1-0.9-0.1-1.8-0.1-2.7c0-0.2,0-0.3,0-0.5c0-0.9,0.2-1.9,0.3-2.8c0.2-1.2,0.6-2.4,1-3.5  c0.3-0.8,0.6-1.5,1-2.2c-0.2-0.5-0.3-1-0.4-1.6v-0.1c-0.8-0.5-1.5-1.2-2-2c-0.3-0.5-0.6-1-0.8-1.6c-0.2-0.7-0.3-1.3-0.4-2  c0-0.4-0.1-1,0.2-1.2s1,0.4,1.2,0.5c0.7,0.4,1.4,0.7,2.1,1l0,0c0,0,0-0.1,0.1-0.2c0.2-0.6,0.4-1.1,0.6-1.6c0.3-0.8,0.7-1.6,1.2-2.3  c0.5-0.5,0.8-0.5,1,0.1c0.3,1.2,0.8,2.3,1.3,3.3c0.1,0.2,0.3,0.5,0.6,0.8l0,0c0.5,0.7,1.1,1.2,1.9,1.6c0.2,0.1,0.5,0.2,0.7,0.3  c0.3,0.1,0.6,0.1,0.9,0.1c1,0,2-0.2,2.9-0.5c0.2,0,0.4-0.1,0.4-0.4c0-0.1,0-0.1,0-0.2c-0.1-0.2-0.3-0.3-0.5-0.2l0,0l0,0  c-0.8,0.3-1.7,0.5-2.5,0.5c-0.3,0-0.5,0-0.8-0.1h0c-0.5-0.2-1-0.4-1.4-0.8c4.6-4,11-6,18.1-5.6c12.8,0.8,21.8,8.2,24.2,17.8  c0.5,2,0.7,4.1,0.6,6.2c-0.1,2.7-1.8,7.4-5.6,11.7l-0.1,0.2c0,0.1-0.1,0.1-0.1,0.2c-0.2,0.2-0.9,1-1,1.1c-1.1,1.1-2.2,2-3.5,2.7  c-0.5,0.3-1,0.5-1.5,0.7c-0.1,0.2-0.2,0.4-0.3,0.6c-0.8,1.7-1.8,3.3-3.1,4.7l0.8,0.4l1.4,0.7c2.5,1.3,4.7,2.8,6.8,4.6l0.2,0.2  c0.2,0.2,0.3,0.6,0,0.9c-0.1,0.1-0.3,0.2-0.5,0.2c-0.1,0-0.3-0.1-0.4-0.2l-0.3-0.3c-2-1.7-4.2-3.2-6.6-4.5l-1.4-0.7l-1-0.4  c-0.8,0.8-1.6,1.5-2.6,2.2l0,0c-0.9,1.4-2,2.7-3.2,3.8c-2,1.8-4.4,3-7,3.4c-0.9,0.2-1.8,0.2-2.8,0.2c-1.2-0.1-2.4-0.3-3.5-0.7  c-2.6-1-4.9-2.6-6.6-4.8c-0.8-1-1.5-2.1-2.1-3.2c-0.7-0.7-1.4-1.4-2-2.1c-0.2,0.1-0.4,0.1-0.6,0.2c-0.5,0.2-1,0.4-1.5,0.6  c-2.2,0.9-4.3,2-6.3,3.3l0,0c-0.1,0.1-0.3,0.2-0.4,0.3c-0.1,0.1-0.3,0.1-0.4,0.1c-0.3,0-0.6-0.3-0.6-0.7  C111.8,106,111.9,105.8,112,105.7L112,105.7z M99.2,74.9l8.8-1.3l2.7,2.4l-0.8,8.3l-3.3,3.2l-8.8,1.3L99.2,74.9z M84.5,77.1l4-0.6  l3.2,5.3l0.3,0.9v-1l0.6-5.8l3.6-0.5l-1.5,13.9l-2.9,0.4l-4-6.6l-0.3-0.9v1l-0.8,7.3L83,91L84.5,77.1z M71.9,79l6-0.9l2.4,13.3  L76.1,92l-0.5-2.7l-0.2-0.2l-3.6,0.5l-0.2,0.2l-1,2.9l-3.9,0.6L71.9,79z M24.1,107c-0.2-0.2-0.3-0.5-0.5-0.7  c-0.2-0.4-0.4-0.7-0.6-1.1c-0.7,0.2-1.4,0.4-2,0.6c-1.7,0.5-3.3,1.1-4.8,1.9l0,0l-0.3,0.2l0,0c-0.1,0-0.2,0.1-0.3,0.1  c-0.2,0-0.4-0.1-0.5-0.3c-0.1-0.3,0-0.6,0.2-0.8h0.1c2.4-1.2,5-2.1,7.6-2.8l2.8-4.2c-0.8-1.6-1.3-3.2-1.7-4.9  c-0.1-0.4,0.2-0.8,0.6-0.9s0.8,0.2,0.9,0.6c0,0.1,0,0.1,0,0.2c0.5,2.3,1.4,4.4,2.7,6.4c0.7,1,1.4,1.9,2.2,2.8c2.9,3,6.8,4.8,11,5  c5,0.2,9.8-1.8,13.2-5.5c3.2-3.4,5-7.9,5.2-12.6c0.1-1.3,0-2.6-0.2-3.9c0-0.2,0-0.4,0.1-0.5l0,0c1.2-2.5,1.9-5.2,2-7.9  c0.1-2.4-0.2-4.7-0.8-7c0-0.1,0-0.2-0.1-0.3c-0.7,0.9-1.6,1.6-2.5,2.2c-2.6,1.7-5.8,2.5-8.9,2.2c-2.9-0.1-5.6-1-8-2.7  c-0.1,0-0.2-0.1-0.2-0.1L25,61.5l-0.3-0.2l0,0l-0.4,0.3l2.1,1.8l10,8.8l0,0l-0.6,0.2c-4.2,1.5-7.7,4.6-9.5,8.7l0.3,0.2  c0.2,0.2,0.4,0.3,0.5,0.5c0.1,0.1,0.1,0.1,0.1,0.2c0.2,0.4,0,0.8-0.4,1c-0.3,0.1-0.6,0-0.9-0.2c-1.7-1.9-4.7-2.1-6.6-0.4  c-0.9,0.8-1.5,2-1.6,3.3c0,0.5,0,0.9,0.1,1.4c0.5,2,2.3,3.4,4.3,3.5c1.2,0.1,2.4-0.4,3.3-1.2l0,0c0.3-0.3,0.8-0.3,1.1,0.1l0,0  c0.1,0.1,0.2,0.2,0.2,0.4c0,0.3,0,0.5-0.2,0.7c-2.5,2.3-6.5,2.1-8.8-0.4c-0.8-0.9-1.4-2-1.6-3.2C16,86.6,16,86.1,16,85.7  c0-0.2,0-0.5,0.1-0.7c0-0.2,0.1-0.3,0.1-0.5l0,0l0,0c-1.1-2.7-1.5-5.7-1.4-8.6c0.6-12.4,12-22,25.4-21.3c3.8,0.2,7.5,1.2,10.8,3  c0.3-0.2,0.6-0.5,0.9-0.7c0.3-0.3,0.6-0.7,0.7-1.2c0.2,0.5,0.4,1,0.6,1.5c0.2,0.9,0.4,1.9,0.4,1.9l0,0c0.7,0,1.4-0.1,2-0.4  c0.8-0.3,1.5-1,2-1.8c0.2,0.7,0.4,1.5,0.5,2.2c0,0.8,0,1.5,0,2.3c1-0.2,2-0.6,3-1.1c0.7-0.4,1.3-1.1,1.7-1.8c0-0.1,0.1-0.1,0.1-0.2  v0.1c0.4,2.2,0.5,4.4,0.4,6.6c-0.2,1.5-0.6,3-1.3,4.3c1.1,2.9,1.6,5.9,1.4,9c-0.1,2.9-0.9,5.8-2.1,8.4c0.2,1.3,0.2,2.7,0.2,4  c-0.2,4.2-1.6,8.2-4,11.6l0.7,1.4l0.5,0.9l0,0c2,0.6,3.9,1.3,5.8,2.1l0.4,0.2c0.3,0.1,0.4,0.5,0.3,0.8l0,0c0,0,0,0.1-0.1,0.1  c-0.1,0.2-0.3,0.3-0.5,0.3c-0.1,0-0.1,0-0.2,0l-0.8-0.3c-0.7-0.3-1.5-0.6-2.2-0.8c-0.6-0.2-1.2-0.4-1.8-0.6h-0.1l0.2,0.3  c0.1,0.2,0.1,0.5,0,0.7c-1.1,1.4-2.4,2.6-3.9,3.6c-0.4,0.3-0.8,0.6-1.3,0.8c-1.3,0.7-2.8,1.3-4.2,1.7l-0.3,0.1  c-0.2,0.1-0.4,0-0.6-0.2l-1.7-1.7l-1.2-1.2c-0.1,0.1-0.1,0.2-0.2,0.3c-0.5,0.9-0.9,1.7-1.3,2.7c-0.1,0.2-0.1,0.4-0.2,0.5  c-0.2,0.9-0.4,1.9-0.5,2.8l0,0c0,0.3-0.1,0.5,0,0.5c0,0.3-0.3,0.6-0.6,0.5l0,0c-0.3,0-0.6-0.3-0.6-0.6c0-0.1,0-0.2,0-0.3  c0-0.3-0.1-0.8-0.2-1.3c-0.1-1-0.5-2-0.9-2.9c-0.3-0.6-0.7-1.1-1.1-1.6c-0.3-0.4-0.7-0.7-1.2-1l-0.3,0.4l-2.3,3.1l-0.1,0.1  c-0.1,0.2-0.3,0.3-0.5,0.2h-0.1c-2.9-0.5-5.7-1.6-8.2-3.2C26.6,109.8,25.2,108.5,24.1,107L24.1,107z M50.7,90  c-0.2-0.1-0.3-0.1-0.5-0.1c-0.3,0-0.6,0-0.8,0.1c-0.1,0-0.1,0.1-0.2,0.1l0,0c-0.3,0.2-0.7,0.1-0.8-0.2c-0.2-0.3-0.1-0.7,0.2-0.8l0,0  c0.5-0.3,1.1-0.4,1.7-0.4c0.1,0,0.3,0,0.4,0.1c1.7,0.4,2.8,2.1,2.5,3.8c-0.3,1.4-1.6,2.5-3,2.5c-0.1,0-0.1,0-0.2,0l0,0  c-0.7-0.1-1.4-0.3-1.9-0.8c-0.2-0.3-0.2-0.6,0-0.9c0.2-0.2,0.5-0.2,0.8,0c0.1,0.1,0.2,0.1,0.3,0.2c0.3,0.2,0.6,0.3,0.9,0.3  c0.1,0,0.3,0,0.4,0c0.9-0.2,1.5-0.9,1.6-1.8C52,91,51.5,90.3,50.7,90z M57.4,86.2c-0.2,0.3-0.4,0.5-0.7,0.7  c-0.8,0.4-1.9,0.1-2.3-0.7c-0.4-0.8-0.1-1.9,0.7-2.3c0.3-0.1,0.6-0.2,0.9-0.2h0.1c0.6,0.1,1,0.4,1.3,0.9c-0.4,0-0.8,0.4-0.8,0.8  C56.7,85.8,57,86.1,57.4,86.2L57.4,86.2z M55.3,81.4c-1.2,0.2-2.3,0.9-3,1.9c-0.2,0.3-0.4,0.6-0.5,1c-0.2,0.5-0.2,1-0.2,1.6  c0,0.2-0.1,0.3-0.3,0.3S51,86.1,50.9,86c-0.6-2.5,0.8-5,3.3-5.6c1.2-0.3,2.6-0.1,3.6,0.6l0.2,0.2l0.3,0.3c0.1,0.1,0.2,0.3,0,0.4  c0.2,0.1,0,0.1-0.2,0.1C57.3,81.4,56.3,81.2,55.3,81.4L55.3,81.4z M48.5,100.2c0.3,0,0.5,0.2,0.8,0.3c0.4,0.4,0.7,1,0.7,1.6  c0,1-0.8,1.8-1.8,1.9c-2,0-4-0.4-5.9-1.3c-0.2-0.1-0.5-0.2-0.7-0.4c-1.7-1.1-3-2.6-4-4.4c-0.2-0.6-0.2-1.1,0.2-1.4  c0.3-0.2,0.7-0.2,1,0c0.1,0.1,0.2,0.2,0.3,0.3c0.9,1,2,1.9,3.2,2.6c0.3,0.2,0.7,0.3,1,0.5C45.5,100.6,47.4,100.1,48.5,100.2z   M43.2,85.4c-0.3,0.5-0.8,0.8-1.4,0.8h-0.1c-0.9,0-1.7-0.9-1.6-1.8s0.9-1.7,1.8-1.6c0.1,0,0.3,0,0.4,0.1c0.4,0.1,0.8,0.4,1,0.8  c-0.4,0-0.8,0.4-0.8,0.8C42.4,85,42.8,85.4,43.2,85.4z M44.4,81.1L44.4,81.1c-0.1,0.2-0.3,0.3-0.4,0.2c-0.6-0.3-1.2-0.6-1.9-0.6  c-2.4-0.2-4.4,1.7-4.6,4c0,0.2,0,0.3,0,0.5c0,0.1,0,0.1,0,0.2c-0.1,0.1-0.1,0.1-0.2,0.1c-0.2,0-0.3-0.1-0.4-0.2  c-0.6-2.5,0.8-5,3.3-5.6c1.2-0.3,2.6-0.1,3.6,0.6l0.6,0.5C44.4,80.8,44.4,80.9,44.4,81.1z M38.7,93.7L38.7,93.7  c0.2,0.2,0.1,0.4-0.2,0.4c-1.7-0.4-3.5,0.4-4.2,2c-0.2,0.5-0.3,1-0.2,1.5c0,0.1-0.1,0.2-0.2,0.2c-0.1,0-0.1-0.1-0.2-0.1  c-0.4-1.2-0.1-2.6,0.8-3.6C35.6,93,37.4,92.8,38.7,93.7z"/>
<polygon class="st1" points="74.9,86.3 75.2,86.1 74.5,82 74.5,81.3 74.3,82 72.8,86.4 73,86.6 "/>
<path class="st1" d="M50.5,112.1c1.6-0.5,3.1-1.2,4.5-2.1c1.2-0.9,2.4-2,3.3-3.2l-1.1-2l-0.7-1.3c-2.4,3-5.7,5.1-9.3,6.2l2.7,2.6  L50.5,112.1z"/>
<path class="st2" d="M112.4,106.8c0.1,0,0.3,0,0.4-0.1s0.3-0.2,0.4-0.3l0,0c2-1.3,4.1-2.5,6.3-3.3c0.5-0.2,1-0.4,1.5-0.6  c0.2-0.1,0.4-0.2,0.6-0.2c0.6,0.7,1.3,1.4,2,2.1c0.6,1.1,1.3,2.2,2.1,3.2c1.7,2.2,4,3.9,6.6,4.8c1.1,0.4,2.3,0.6,3.5,0.7  c0.9,0,1.8,0,2.8-0.2c2.6-0.5,5-1.7,7-3.4c1.3-1.1,2.3-2.4,3.2-3.8l0,0c0.9-0.7,1.8-1.4,2.6-2.2l1,0.4l1.4,0.7  c2.4,1.2,4.6,2.7,6.6,4.5l0.3,0.3c0.1,0.1,0.2,0.1,0.4,0.2c0.3,0,0.6-0.3,0.6-0.6c0-0.2-0.1-0.4-0.2-0.5l-0.2-0.2  c-2.1-1.8-4.4-3.4-6.8-4.6L153,103l-0.8-0.4c1.2-1.4,2.3-3,3.1-4.7c0.1-0.2,0.2-0.4,0.3-0.6c0.5-0.2,1-0.5,1.5-0.7  c1.3-0.7,2.5-1.7,3.5-2.7c0.1-0.1,0.8-0.8,1-1.1c0-0.1,0.1-0.1,0.1-0.2l0.1-0.2c3.8-4.3,5.5-9,5.6-11.7c0.1-2.1-0.1-4.2-0.6-6.2  c-2.4-9.6-11.4-17-24.2-17.8c-7.1-0.4-13.5,1.5-18.1,5.6c0.4,0.3,0.9,0.6,1.4,0.8h0.2c0.2,0.1,0.5,0.1,0.8,0.1  c0.9,0,1.7-0.1,2.5-0.5l0,0c0.2-0.1,0.4,0,0.5,0.2l0,0c0.1,0.2,0,0.4-0.2,0.5c-0.9,0.4-1.9,0.6-2.9,0.5c-0.3,0-0.6-0.1-0.9-0.1  c-0.2-0.1-0.5-0.2-0.7-0.3c-0.8-0.3-1.4-0.9-1.9-1.6l0,0c-0.2-0.3-0.4-0.6-0.6-0.8c-0.5-1-1-2.1-1.3-3.3c-0.2-0.6-0.5-0.7-1-0.1  c-0.5,0.7-0.9,1.5-1.2,2.3c-0.2,0.5-0.4,1.1-0.6,1.6c0,0.2-0.1,0.2-0.1,0.2l0,0c-0.7-0.3-1.4-0.6-2.1-1c-0.2-0.1-0.8-0.7-1.2-0.5  s-0.3,0.8-0.2,1.2c0.1,0.7,0.2,1.3,0.4,2c0.2,0.6,0.4,1.1,0.8,1.6c0.5,0.8,1.2,1.5,2,2v0.1c0.1,0.5,0.2,1.1,0.4,1.6  c-0.4,0.7-0.7,1.5-1,2.2c-0.4,1.1-0.8,2.3-1,3.5c-0.2,0.9-0.3,1.8-0.3,2.8c0,0.2,0,0.3,0,0.5c0,0.9,0,1.8,0.1,2.7  c-0.3,0.4-0.6,0.9-0.8,1.4c-0.2,0.5-0.3,1-0.3,1.5c0,0.3,0,0.6,0,0.9c0.1,0.9,0.5,1.7,1,2.4c0.2,0.3,0.5,0.6,0.8,0.9  c0,0.2,0,0.4,0,0.6s0,0.6,0,0.9c0,3.2,0.7,6.4,2.2,9.3c0.5,1,1.1,1.9,1.7,2.8l-0.4,0.2c-0.5,0.2-1,0.4-1.5,0.6  c-2.3,0.9-4.5,2.1-6.5,3.5l-0.3,0.2c-0.3,0.2-0.3,0.6-0.1,0.9c0.1,0.1,0.3,0.2,0.5,0.3h-0.3V106.8z M140.5,111.2  c-1.5,0.6-3.1,0.8-4.7,0.8c-1.9-0.1-3.8-0.7-5.4-1.7c-1.6-1-3-2.3-4.1-3.8c5.9,3.7,13.2,4.1,19.5,1  C144.4,109.1,142.6,110.4,140.5,111.2z M116.8,84.9c-0.2-0.7-0.2-1.5,0-2.2c0.7-1.9,2.8-2.8,4.7-2.1c1.3,0.5,2.2,1.7,2.3,3.1  c0,0.1,0,0.3,0,0.4c0,0.6-0.2,1.2-0.6,1.8c-0.4,0.7-1.1,1.2-1.9,1.5s-1.7,0.2-2.6-0.1C117.9,86.7,117.1,85.9,116.8,84.9z   M118.6,92.2c-0.1-0.6-0.1-1.1-0.2-1.7s0-1.2,0-1.8c0.5,0.2,1.1,0.3,1.6,0.4c1.2,0.1,2.5-0.3,3.4-1.1c1.1-0.8,1.8-2,2-3.3  c0-0.2,0-0.3,0-0.5c0-0.3,0-0.5,0-0.8c0.5-0.2,1.1-0.3,1.6-0.3h0.1c0.4,0,0.8,0.2,1.2,0.3l0.2,0.1c0,0.2-0.1,0.4-0.1,0.7  c0,0.2,0,0.4,0,0.6c0.1,1.2,0.5,2.3,1.4,3.2c2,2.1,5.2,2.1,7.3,0.2c0.7-0.7,1.2-1.5,1.4-2.4c0.1-0.3,0.1-0.7,0.2-1.1  c0.2-2.8-2-5.3-4.8-5.5c-2-0.1-4,1-4.9,2.8c-0.6-0.3-1.2-0.5-1.9-0.6h-0.2c-0.7,0-1.4,0.1-2,0.3c-1.1-2.6-4.1-3.8-6.7-2.7  c-0.3,0.1-0.6,0.3-0.9,0.5c0-0.5,0-1,0-1.6c0-0.1,0-0.3,0-0.4c0-0.7,0.1-1.5,0.2-2.2c0.3-1.7,0.9-3.4,1.6-5  c-0.1-0.1-0.1-0.2-0.2-0.2c0,0.1,0.1,0.2,0.2,0.2c2.2,3.2,7,5.1,11,5.3c3.4,0,6.8-0.7,9.9-2.1c2.5-1.2,18.4-9.1,18.4-9.1l0.4,0.4  l-10.3,6.6l-3.6,2.3c0.7,0.3,1.4,0.6,2.1,1c3.5,1.7,6.4,4.1,7.6,8.5l0,0l-0.4,0.2c-0.8,0.3-1.5,0.7-2.1,1.2c-0.3,0.3-0.3,0.8,0,1.1  s0.8,0.3,1.1,0c1.9-1.8,4.9-1.6,6.6,0.3c0.8,0.8,1.2,1.9,1.2,3.1v0.3c-0.1,2.6-2.3,4.6-4.9,4.5c-1.3-0.1-2.5-0.6-3.3-1.6  c-0.3-0.3-0.8-0.3-1.1,0l0,0c-0.3,0.3-0.3,0.8,0,1.1l0,0l0,0c1,1.1,2.5,1.9,4,2c-0.4,0.2-0.8,0.4-1.2,0.5l0,0  c-0.2,0.1-0.4,0.2-0.5,0.4c-0.1,0.3-0.2,0.6-0.4,0.9c-4.4,9.3-15.5,13.3-24.7,8.9C123.5,103.7,119.6,98.4,118.6,92.2L118.6,92.2z   M130,84.3c0-0.3,0.1-0.7,0.2-1c0.7-1.9,2.8-2.9,4.6-2.2c1.1,0.4,1.9,1.3,2.3,2.4c0.1,0.4,0.2,0.8,0.1,1.2c0,0.4-0.1,0.8-0.3,1.2  c-0.6,1.4-2,2.3-3.5,2.2c-0.3,0-0.6-0.1-0.9-0.2C130.9,87.4,129.9,85.9,130,84.3z"/>
<path class="st2" d="M136.6,92.8c1.2-0.2,2.5,0.3,3.3,1.2c0.5,0.5,0.8,1.2,0.8,1.9c0,0.3,0,0.5,0,0.8c0,0.1,0.1,0.2,0.2,0.2  c0.1,0,0.1,0,0.2-0.1c0.1-0.1,0.1-0.2,0.1-0.3c0.4-1.1,0.2-2.4-0.6-3.3c-1.1-1.2-2.8-1.6-4.2-0.8C136.3,92.5,136.4,92.8,136.6,92.8z  "/>
<path class="st2" d="M118.6,84.4c0.1,0.3,0.4,0.6,0.7,0.8c0.2,0.1,0.5,0.2,0.8,0.2c0.2,0,0.3,0,0.5-0.1c0.7-0.2,1.2-0.7,1.3-1.4  v-0.1c0-0.9-0.7-1.7-1.7-1.8c-0.6,0-1.1,0.3-1.5,0.8c0.3,0.1,0.6,0.3,0.7,0.6c0,0.1,0,0.2,0,0.3C119.4,84.1,119.1,84.4,118.6,84.4z"/>
<path class="st2" d="M125.4,93.5c0.5,0.4,1.1,0.6,1.8,0.7c0.7,0,1.4-0.2,2-0.6c0.3-0.2,0.3-0.6,0.1-0.9c-0.1-0.1-0.1-0.1-0.2-0.2  c-0.2-0.1-0.4-0.1-0.6,0.1l0,0c-0.4,0.2-0.8,0.4-1.2,0.3c-0.4,0-0.8-0.2-1.1-0.4c-0.3-0.3-0.6-0.6-0.7-1.1c-0.1-0.2-0.1-0.4-0.1-0.6  c0.1-1.1,0.9-1.9,2-1.8c0.4,0,0.7,0.1,1,0.3c0.1,0.1,0.2,0.1,0.3,0.1c0.2,0,0.5-0.1,0.6-0.2c0.2-0.3,0.1-0.7-0.1-0.9  c-0.3-0.2-0.6-0.3-0.9-0.4c-0.3-0.1-0.5-0.1-0.8-0.2c-1.7-0.1-3.2,1.3-3.3,3c0,0.6,0.1,1.1,0.3,1.6C124.7,92.9,125,93.2,125.4,93.5z  "/>
<path class="st2" d="M132.2,85.1c0.1,0.3,0.3,0.5,0.6,0.7c0.8,0.5,1.8,0.4,2.4-0.4c0.2-0.3,0.3-0.6,0.3-0.9c0-0.1,0-0.2,0-0.3  c-0.1-0.9-1-1.6-2-1.4c-0.5,0.1-0.9,0.3-1.2,0.7c0.2,0,0.4,0.1,0.5,0.3c0.1,0.2,0.2,0.4,0.2,0.6C133,84.7,132.6,85.1,132.2,85.1  L132.2,85.1z"/>
<path class="st2" d="M125.4,100.3c0,0.8,0.5,1.6,1.2,1.8c0.1,0,0.2,0.1,0.3,0.1c0.7,0.1,1.5,0.1,2.2,0.1c1.5-0.1,2.9-0.5,4.2-1  c1.7-0.9,3.1-2.2,4.2-3.8c0.3-0.6,0.3-1.1,0-1.3c-0.3-0.2-0.7-0.3-1-0.1c-1.1,1-2.3,1.8-3.7,2.4c-2.5,1.1-4.7,0.2-5.9,0.2  C126.1,98.7,125.5,99.4,125.4,100.3z"/>
<path class="st2" d="M50.4,93.7c-0.1,0-0.3,0-0.4,0c-0.3,0-0.6-0.1-0.9-0.3c-0.1-0.1-0.2-0.1-0.3-0.2c-0.3-0.2-0.7-0.1-0.9,0.1  s-0.1,0.6,0,0.8c0.5,0.5,1.2,0.8,1.9,0.8l0,0c0.1,0,0.1,0,0.2,0c1.8,0,3.2-1.5,3.1-3.2c0-1.5-1.1-2.8-2.6-3.1  c-0.1,0-0.3-0.1-0.4-0.1c-0.6,0-1.2,0.1-1.7,0.4c-0.3,0.2-0.4,0.5-0.2,0.8l0,0c0.2,0.3,0.5,0.4,0.8,0.2l0,0c0.1,0,0.1-0.1,0.2-0.1  c0.3-0.1,0.6-0.2,0.8-0.1c0.2,0,0.4,0,0.5,0.1c0.8,0.3,1.3,1,1.3,1.9C51.9,92.8,51.3,93.5,50.4,93.7z"/>
<path class="st2" d="M57.5,84.5c-0.3-0.5-0.8-0.8-1.3-0.9H56c-0.9-0.1-1.8,0.7-1.8,1.6c-0.1,0.9,0.7,1.8,1.6,1.8  c0.3,0,0.6,0,0.9-0.2c0.3-0.2,0.5-0.4,0.7-0.7c-0.4,0-0.8-0.4-0.8-0.9C56.6,84.9,57,84.5,57.5,84.5z"/>
<path class="st2" d="M43.7,80.2c-2.1-1.4-5-0.8-6.3,1.4c-0.7,1.1-0.9,2.4-0.6,3.6c0,0.2,0.2,0.3,0.4,0.2c0.1,0,0.2-0.1,0.2-0.1  c0-0.1,0-0.1,0-0.2c-0.1-2.4,1.7-4.4,4.1-4.5c0.2,0,0.4,0,0.5,0c0.7,0,1.3,0.3,1.9,0.6c0.1,0.1,0.3,0.1,0.4-0.1V81  c0-0.1,0-0.3-0.1-0.3L43.7,80.2z"/>
<path class="st2" d="M43.4,99.9c-0.3-0.1-0.7-0.3-1-0.5c-1.2-0.6-2.3-1.5-3.2-2.6c-0.1-0.1-0.2-0.2-0.3-0.3c-0.3-0.2-0.7-0.2-1,0  s-0.4,0.8-0.2,1.4c0.9,1.8,2.3,3.3,4,4.4c0.2,0.1,0.5,0.3,0.7,0.4c1.8,0.9,3.8,1.4,5.8,1.3c1,0,1.8-0.9,1.8-1.9  c0-0.6-0.2-1.2-0.7-1.6c-0.2-0.2-0.5-0.3-0.8-0.3C47.4,100.1,45.5,100.6,43.4,99.9z"/>
<path class="st2" d="M58.5,81.8c0.1-0.1,0.1-0.3,0-0.4l-0.3-0.3L57.9,81c-2.1-1.4-5-0.8-6.3,1.4c-0.7,1.1-0.9,2.4-0.6,3.6  c0,0.2,0.2,0.3,0.4,0.2c0.2,0,0.3-0.2,0.3-0.3c0-0.5,0-1.1,0.2-1.6c0.1-0.4,0.3-0.7,0.5-1c1.3-1.9,3.8-2.6,5.8-1.4  C58.3,82.1,58.4,82,58.5,81.8z"/>
<path class="st2" d="M43.2,83.8c-0.2-0.4-0.6-0.7-1-0.8c-0.1,0-0.3-0.1-0.4-0.1c-0.9,0-1.7,0.7-1.8,1.6s0.7,1.7,1.6,1.8h0.1  c0.6,0,1.1-0.3,1.4-0.8c-0.4,0-0.8-0.4-0.8-0.9C42.5,84.1,42.8,83.8,43.2,83.8z"/>
<path class="st2" d="M33.6,97.6c0,0.1,0.2,0.2,0.3,0.1c0.1,0,0.1-0.1,0.1-0.2c0-0.5,0.1-1,0.2-1.5c0.7-1.6,2.5-2.4,4.2-2  c0.3,0,0.3-0.2,0.2-0.4l0,0c-1.4-0.9-3.1-0.7-4.3,0.4C33.5,95,33.2,96.4,33.6,97.6z"/>
<path class="st2" d="M36.4,114.2L36.4,114.2c0.3,0,0.5-0.1,0.6-0.2l0.1-0.1l2.2-3.1l0.3-0.4c0.4,0.3,0.8,0.6,1.2,1  c0.4,0.5,0.8,1.1,1.1,1.7c0.5,0.9,0.8,1.9,0.9,2.9c0.1,0.6,0.2,1,0.2,1.3c0,0.1,0,0.2,0,0.3c0,0.3,0.3,0.6,0.6,0.6l0,0  c0.3,0,0.6-0.2,0.6-0.5c0,0,0-0.2,0-0.5l0,0c0.1-0.9,0.3-1.9,0.5-2.8c0-0.2,0.1-0.4,0.2-0.5c0.4-0.9,0.8-1.8,1.3-2.7  c0.1-0.1,0.1-0.2,0.2-0.3l1.2,1.2l1.7,1.7c0.2,0.2,0.4,0.2,0.6,0.2l0.3-0.1c1.5-0.4,2.9-1,4.2-1.7c0.4-0.2,0.9-0.5,1.3-0.8  c1.5-1,2.8-2.3,3.8-3.8c0.1-0.2,0.2-0.4,0-0.7l-0.2-0.3h0.1c0.6,0.2,1.2,0.4,1.8,0.6c0.8,0.3,1.5,0.5,2.2,0.8l0.8,0.3  c0.1,0,0.1,0,0.2,0c0.2,0,0.4-0.1,0.5-0.3c0,0,0-0.1,0.1-0.1c0.1-0.3,0-0.7-0.3-0.8l0,0l-0.4-0.2c-1.9-0.8-3.8-1.5-5.8-2.1l0,0  l-0.5-0.9l-0.7-1.4c2.4-3.4,3.8-7.4,4-11.6c0.1-1.3,0-2.7-0.2-4c1.2-2.6,2-5.5,2.1-8.4c0.2-3.1-0.3-6.1-1.4-9  c0.7-1.3,1.2-2.8,1.4-4.3c0.2-2.2,0-4.4-0.4-6.6v-0.1c0,0.1,0,0.1-0.1,0.2c-0.4,0.8-1,1.4-1.7,1.8c-0.9,0.5-1.9,0.9-3,1.1  c0-0.8,0-1.5,0-2.3c-0.1-0.8-0.2-1.5-0.5-2.2c-0.5,0.8-1.2,1.4-2,1.8c-0.6,0.3-1.3,0.5-2,0.4l0,0c0-0.1-0.2-1.1-0.4-1.9  c-0.1-0.5-0.3-1-0.6-1.5c-0.2,0.4-0.5,0.8-0.8,1.2c-0.3,0.3-0.6,0.5-0.9,0.7c-3.3-1.8-7-2.8-10.8-3C26.9,54,15.6,63.5,14.9,75.9  c-0.1,2.9,0.3,5.9,1.4,8.6l0,0l0,0c0,0.2-0.1,0.3-0.1,0.5s-0.1,0.5-0.1,0.7c0,0.4,0,0.9,0.1,1.3c0.5,3.4,3.7,5.7,7.1,5.2  c1.2-0.2,2.3-0.7,3.2-1.5c0.2-0.2,0.3-0.4,0.2-0.7c0-0.1-0.1-0.3-0.2-0.4c-0.3-0.3-0.8-0.4-1.1-0.1l0,0l0,0  c-0.9,0.8-2.1,1.2-3.3,1.2c-2-0.1-3.8-1.5-4.3-3.5c-0.1-0.5-0.2-0.9-0.1-1.4c0.1-2.6,2.3-4.6,4.9-4.4c1.3,0.1,2.4,0.6,3.3,1.6  c0.3,0.3,0.8,0.3,1.1,0c0.2-0.2,0.3-0.6,0.2-0.9c0-0.1-0.1-0.1-0.1-0.2c-0.2-0.2-0.3-0.4-0.5-0.5l-0.3-0.2c1.8-4.1,5.2-7.2,9.5-8.7  l0.6-0.2l0,0l-10-8.8l-2.1-1.8l0.4-0.3l0,0l0.3,0.2l16.4,11.3c0.1,0,0.2,0.1,0.2,0.1c2.4,1.6,5.1,2.5,8,2.7c3.1,0.2,6.2-0.6,8.9-2.2  c0.9-0.6,1.8-1.4,2.5-2.2c0,0.1,0,0.2,0.1,0.3c0.7,2.3,1,4.6,0.8,7c-0.1,2.7-0.8,5.4-2,7.9l0,0c-0.1,0.1-0.1,0.3-0.1,0.5  c0.2,1.3,0.2,2.6,0.2,3.9c-0.2,4.7-2.1,9.1-5.2,12.6c-3.3,3.7-8.2,5.7-13.2,5.5c-4.2-0.2-8.1-2-11-5c-0.8-0.8-1.6-1.8-2.2-2.8  c-1.3-1.9-2.2-4.1-2.7-6.4c0-0.1,0-0.1,0-0.2c-0.1-0.4-0.5-0.7-0.9-0.6s-0.7,0.5-0.6,0.9l0,0c0.4,1.7,0.9,3.3,1.7,4.8l-2.8,4.2  c-2.6,0.7-5.2,1.6-7.6,2.8h-0.1c-0.3,0.2-0.4,0.5-0.2,0.8c0.1,0.2,0.3,0.3,0.5,0.3c0.1,0,0.2,0,0.3-0.1l0,0l0.3-0.2l0,0  c1.6-0.7,3.2-1.3,4.8-1.8c0.6-0.2,1.3-0.4,2-0.6c0.2,0.4,0.4,0.7,0.6,1.1c0.1,0.2,0.3,0.4,0.5,0.7c1.2,1.5,2.5,2.9,4.1,4  C30.6,112.6,33.4,113.7,36.4,114.2z M56.5,103.5l0.7,1.3l1.1,2c-0.9,1.2-2,2.3-3.3,3.2c-1.4,0.9-2.9,1.6-4.5,2.1l-0.6,0.2l-2.7-2.6  C50.9,108.6,54.1,106.5,56.5,103.5z M45.2,110.2c-0.2,0.3-0.3,0.6-0.5,1s-0.5,1-0.7,1.5l-0.2,0.5c-0.1,0.2-0.2,0.5-0.2,0.7  c-0.2-0.5-0.4-1-0.6-1.5c-0.4-0.7-0.8-1.4-1.4-2C42.7,110.4,44,110.4,45.2,110.2z M25.3,106.5c-0.2-0.3-0.4-0.5-0.5-0.7  c-0.3-0.4-0.5-0.8-0.7-1.2l-0.1-0.2l2.3-3.6l0,0l-0.1-0.2l-0.5-0.9l0.5,0.9l0.1,0.2l0,0c0.1,0.1,0.2,0.2,0.2,0.4v0.1l0.2,0.4  l0.1,0.1L27,102l0,0l0.3,0.4l0.3,0.4l0,0c0.1,0.1,0.2,0.3,0.3,0.4l0.2,0.3l0.1,0.1c0.1,0.1,0.2,0.2,0.3,0.3l0.2,0.2l0.1,0.1l0.1,0.1  l0.3,0.3l0.3,0.3l0.3,0.3l0.3,0.3l0,0l0.4,0.3c0.1,0.1,0.2,0.1,0.2,0.2l0.2,0.1l0.3,0.3l0.2,0.2l0.2,0.1L32,107l0.4,0.2l0.4,0.3  l0.4,0.2l0.4,0.2l0.4,0.2l0.2,0.1l0.3,0.2l0.3,0.1l0.3,0.1l0.3,0.1l0.3,0.1h0.1l0.5,0.2l0.3,0.1c0.5,0.2,1,0.3,1.6,0.4l-0.3,0.4  l-1.8,2.5c-2.6-0.5-5.1-1.5-7.3-2.9C27.5,108.9,26.3,107.8,25.3,106.5z"/>
<path class="st2" d="M71.7,89.9l0.2-0.2l3.6-0.5l0.2,0.2l0.5,2.7l4.2-0.6L78,78.2l-6,0.9l-5.2,14.4l3.9-0.6L71.7,89.9z M74.3,82  l0.2-0.7V82l0.6,4.1l-0.2,0.2L73,86.6l-0.2-0.2L74.3,82z"/>
<polygon class="st2" points="87.4,83.1 87.4,82.1 87.8,83 91.7,89.7 94.6,89.2 96.1,75.4 92.5,75.9 91.9,81.8 91.9,82.7 91.6,81.8   88.4,76.5 84.4,77.1 83,90.9 86.7,90.4 "/>
<path class="st2" d="M109.8,84.3l0.8-8.3l-2.7-2.3L99.1,75l-1.5,13.9l8.8-1.3L109.8,84.3z M105.7,82.9l-0.6,1.1l-1.1,0.7l-1.3,0.2  l-0.3-0.2l0.7-7l0.2-0.2l1.4-0.2l1,0.3l0.4,0.9L105.7,82.9z"/>
<path class="st1" d="M43.5,113.8c0.1-0.2,0.1-0.5,0.2-0.7l0.2-0.5c0.2-0.5,0.5-1,0.7-1.5s0.4-0.7,0.5-1c-1.2,0.2-2.5,0.3-3.7,0.2  c0.5,0.6,1,1.3,1.4,2C43.1,112.8,43.4,113.3,43.5,113.8z"/>
</svg>