<?xml version="1.0" encoding="UTF-8"?><svg id="Layer_2" xmlns="http://www.w3.org/2000/svg" viewBox="0 0 495 75.13"><defs><style>.cls-1{fill:#040047;}</style></defs><g id="pressable-logo"><g id="pressable"><path class="cls-1" d="m110.6,5.63c0-2.2,1.1-2.6,2.5-2.6h21.2c17.9,0,23.7,4.9,23.7,20.7v1.7c0,16.1-6.1,20.7-23.7,20.7h-14.8v26.4c.1,1.3-.8,2.4-2.1,2.6h-.3c-2.1,0-6.5-.6-6.5-1.8V5.63Zm8.9,5.3v27.3h14.8c11.8,0,14.7-2.5,14.7-12.8v-1.7c0-10.3-2.9-12.8-14.7-12.8h-14.8Z"/><path class="cls-1" d="m186.4,28.03c-5.9,0-11.4,2.2-11.4,3v41.6c.1,1.2-.7,2.2-1.8,2.4h-.5c-1.8,0-5.8-.4-5.8-1.6V27.53c0-3.3,8.1-6.9,19.2-6.9,2.4,0,9-.1,9,2.6,0,3.9-.9,5.5-2,5.5-2.3-.4-4.5-.6-6.7-.7"/><path class="cls-1" d="m222.1,75.03c-16.1,0-21.6-6.4-21.6-23.9v-12.6c0-12.8,6.5-17.8,19.3-17.8h1.3c13.6,0,18.7,5.1,18.7,14.9v2.4c0,11.8-5,15.7-31.2,15.7,0,10.2,3.8,14.4,15.2,14.4,5.3,0,10.9-1.5,13.9-1.5,1,0,1.7.6,1.7,4.9,0,1.1-.4,1.5-1.5,1.8-5.2,1.1-10.5,1.7-15.8,1.7m9.7-39.6c0-5.5-3.4-8.4-11.4-8.4-6.9,0-11.7,2.1-11.7,11.2v9c20.1,0,23.1-1.7,23.1-9.8v-2h0Z"/><path class="cls-1" d="m263.7,67.73c7.7,0,12.1-1.7,12.1-6.7,0-11.9-26-9.2-26-27.3,0-11,8.9-13.1,17.9-13.1,4.6-.1,9.2.2,13.8.8,1.4.2,1.7,1,1.7,2.1,0,3.4-1.1,5.3-2.1,5.3-3.8-.5-7.6-.8-11.4-.8-7.3,0-11.7,1.4-11.7,6,0,10.2,26.1,8,26.1,26.8,0,11.3-8.3,14.2-19,14.2-5.2,0-10.3-.4-15.4-1.3-1.2-.4-1.4-.8-1.4-1.6,0-4.5,1.7-5.4,2.4-5.4h.4c4.1.7,8.3,1,12.6,1"/><path class="cls-1" d="m307.3,67.73c7.7,0,12.1-1.7,12.1-6.7,0-11.9-26-9.2-26-27.3,0-11,8.9-13.1,17.9-13.1,4.6-.1,9.2.2,13.8.8,1.4.2,1.7,1,1.7,2.1,0,3.4-1.1,5.3-2.1,5.3-3.8-.5-7.6-.8-11.4-.8-7.3,0-11.7,1.5-11.7,6,0,10.2,26.1,8.1,26.1,26.9,0,11.3-8.3,14.2-19,14.2-5.2,0-10.3-.4-15.5-1.3-1.2-.4-1.4-.8-1.4-1.6,0-4.5,1.7-5.4,2.4-5.4h.4c4.2.6,8.5.9,12.7.9"/><path class="cls-1" d="m373.8,69.63c0,2.2-9.2,5.4-19.4,5.4-13.4,0-19.1-4.8-19.1-16.2,0-10.3,4-15.2,16.1-15.2,4.8.1,9.6.8,14.3,2.3v-8.7c0-6.9-3.1-9.5-12.8-9.5-4.3.1-8.6.5-12.8,1.2-1.8,0-2.1-4.2-2.1-4.9,0-1.2.3-1.6.9-1.8,2-.7,8.9-1.7,16-1.7,12.6,0,18.8,3.3,18.8,16.3l.1,32.8Zm-8-17.3c-.7-.7-8-2.4-12.5-2.4-6.8,0-9.8,1.8-9.8,9.5,0,7,3.1,9.3,11.1,9.3,4,0,10.4-1.2,11.2-2.2v-14.2h0Z"/><path class="cls-1" d="m392,25.23c4.7-2.9,10-4.5,15.5-4.5,12.8,0,14.7,8.9,14.7,18.1v18.4c0,9.7-2.9,17.8-18.9,17.8-5,0-12.6-.3-17.8-2.8-1.4-.6-1.9-1.5-1.9-3.3V1.63c0-1.2,4-1.6,6.1-1.6,1.5,0,2.3,1,2.3,2.8v22.4h0Zm0,41c0,.6,5.7,1.7,11.2,1.7,10.3,0,10.8-5.6,10.8-10.8v-18.1c0-5.2-.5-10.9-8.4-10.9-6.3,0-13.4,3.1-13.6,4.6v33.5Z"/><path class="cls-1" d="m451.6,71.53c0,3.2-6.3,3.4-8.7,3.4-7.4,0-11.4-3.7-11.4-13.4V1.53c0-1.3,4.4-1.5,6-1.5,1.1-.2,2.2.7,2.4,1.8v58.6c0,4.3.9,6.9,5.1,6.9,1.6-.1,3.1-.3,4.6-.6,1.1-.1,2,3.4,2,4.8"/><path class="cls-1" d="m477.2,75.03c-16.1,0-21.5-6.4-21.5-23.9v-12.6c0-12.8,6.5-17.8,19.3-17.8h1.3c13.6,0,18.7,5.1,18.7,14.9v2.4c0,11.8-5,15.7-31.2,15.7,0,10.2,3.8,14.4,15.3,14.4,5.3,0,10.9-1.5,13.9-1.5,1,0,1.7.6,1.7,4.9,0,1.1-.4,1.5-1.5,1.8-5.4,1.1-10.7,1.7-16,1.7m9.6-39.6c0-5.5-3.4-8.4-11.4-8.4-6.9,0-11.7,2.1-11.7,11.2v9c20.1,0,23.1-1.7,23.1-9.8v-2Z"/></g><g id="pressable-icon"><path class="cls-1" d="m37,18.53h-10.8v19.8h10.8c8.6,0,10.6-1.8,10.6-9.3v-1.2c0-7.5-2.1-9.3-10.6-9.3Z"/><path class="cls-1" d="m0,2.73h0v72.3h46.3l26-26V2.73H0Zm54.2,26.3c0,11.7-4.4,15-17.2,15h-10.8v19.1c.1.9-.5,1.8-1.5,1.9h-.3c-1.5,0-4.7-.4-4.7-1.3V14.63c0-1.6.8-1.9,1.8-1.9h15.5c13,0,17.2,3.6,17.2,15v1.3Z"/></g></g></svg>